<svg width="10136" height="4851" viewBox="0 0 10136 4851" fill="none" xmlns="http://www.w3.org/2000/svg">
<path d="M9771.43 3857.27C9751.25 3869.16 9730.51 3881.16 9709.27 3893.22L9691.03 3902.42C9516.3 3999.2 9210.67 4133.02 8980.49 4203.79C8917.42 4224.37 8860.33 4241.16 8807.06 4256.44C8717.92 4281.94 8753.03 4241.25 8692.05 4257.42C8574.05 4288.76 8473.41 4339.02 8373.98 4367.87C8341.77 4377.21 8363.1 4322.15 8329.66 4333.04C8329.32 4333.15 8328.98 4333.26 8328.65 4333.37C8112.06 4412.93 7886.39 4497.33 7741.71 4562.9C7730.89 4568.06 7719.82 4573.35 7708.77 4578.59C7628.27 4616.82 7546.6 4657.74 7462.46 4699.95C7420.35 4721.04 7378 4742.35 7331.85 4764.8C7308.58 4776.06 7285.12 4787.36 7255.73 4800.45C7240.02 4807.32 7225.98 4813.77 7196.6 4824.52C7190.25 4826.79 7179.22 4830.63 7167.29 4834.1C7161.93 4835.67 7152.62 4838.29 7141.84 4840.74C7136.4 4841.97 7130.44 4843.22 7123.72 4844.42C7120.3 4845.02 7116.98 4845.58 7112.85 4846.2C7107.45 4847 7101.58 4847.76 7095.09 4848.42C7082.09 4849.7 7066.66 4850.67 7046.9 4850.04C7041.96 4849.87 7036.74 4849.59 7031.21 4849.16C7025.11 4848.64 7021.87 4848.44 7010.35 4846.9C6990.58 4844.13 6967.16 4839.35 6939.62 4829.45C6885.82 4809.4 6809.63 4769.38 6753.95 4670.42C6701.7 4579.83 6711.23 4472.25 6715.61 4452.69C6727.26 4381.51 6750.94 4345.11 6756.69 4333.48C6765.99 4316.94 6773.98 4305.31 6781.03 4295.6C6812.13 4254.64 6823.27 4247.13 6833.94 4236.36C6843.94 4227.03 6850.45 4221.47 6855.91 4216.76C6866.6 4207.65 6872.6 4202.69 6876.19 4199.73C6883.24 4195.06 6878.91 4194.14 6859.77 4229.78C6878.96 4198.08 6897.67 4151.96 6918.04 4087.47C6928.56 4054.88 6939.14 4018.19 6955.96 3969.79C6976.39 3920.9 6985.39 3860.6 7078.47 3753.25C7249.39 3588.76 7372.81 3524.48 7510.69 3433.71C7763.95 3279.73 7990.47 3150.98 8221.81 3003.93C8462.67 2851.11 8706.2 2690.12 8941.68 2526.15C8989.11 2492.91 9036.47 2460.22 9083.62 2427.95C9242.47 2320.42 9395.83 2222.05 9555.23 2095.15C9555.64 2095.13 9555.41 2095.31 9550.09 2100.97C9547.15 2104.27 9543.32 2107.91 9533.54 2120.92C9528.29 2128.4 9522.02 2135.86 9510 2160.01C9504.71 2171.47 9496.21 2188.76 9489.5 2221.92C9484.2 2254.61 9472.99 2321.42 9524.08 2407.04C9575.95 2488.66 9649.49 2512.8 9681.22 2520.51C9717.49 2528.79 9735.34 2527.65 9749.94 2527.44C9778.19 2525.99 9788.36 2522.85 9798.37 2520.6C9816.09 2515.98 9822.81 2512.85 9829 2510.26C9840.45 2505.15 9845.42 2501.99 9851.63 2497.96C9797.5 2530.24 9762.39 2536.17 9743.29 2541.37C9723.51 2545.97 9711.04 2548.19 9698.77 2550.62C9675.19 2555.17 9653.79 2559.57 9631.74 2564.67C9588.08 2574.75 9543.53 2587 9498.51 2600.87C9409.35 2628.38 9320.38 2661.49 9236.31 2697.54C9194.74 2715.49 9233.06 2740.33 9226.09 2746.24C9116.52 2838.56 9131.87 2752.9 9044.92 2777.06C9043.79 2777.38 9042.67 2777.7 9041.54 2778.02C8812.2 2841.48 8600.74 2913.75 8385.64 3007.27C8257.2 3062.53 8131.84 3121.51 8014.38 3179.79C7881.7 3245.83 8047.12 3252.03 7894.16 3275.47C7883.58 3277.17 7901.86 3226.1 7863.09 3238.89C7775.07 3268.02 7618.11 3346.11 7551.5 3372.59C7423.07 3423.41 7402.36 3433.13 7282.97 3486.04C7227.99 3510.27 7168.63 3534.12 7107.52 3558.34C6987.36 3605.93 6860.48 3655.5 6746.74 3712.64C6710.05 3731.18 6776 3745.72 6719.06 3778.54C6662.32 3811.34 6501.89 3878.5 6443.85 3893.19C6385.95 3907.95 6396.53 3868.99 6384.13 3866.48C6282.24 3844.72 6125.41 3999.94 6097.57 4011.39C6092.33 4013.78 6087.15 4016.12 6082.03 4018.4C5897.41 4100.25 5721.81 4175.53 5511.8 4224.44C5271.87 4276.66 5045.91 4313.39 4790.85 4353.25C4747.44 4359.52 4703.85 4365.69 4651.61 4369.36C4623.23 4370.52 4601.48 4374.12 4545.04 4366.78C4539.18 4365.91 4527.4 4363.75 4516.81 4360.94C4511.27 4359.49 4505.38 4357.76 4499.02 4355.6C4495.82 4354.51 4492.62 4353.35 4489.06 4351.97C4484.32 4350.13 4479.33 4348.02 4474.07 4345.55C4463.56 4340.6 4451.88 4334.23 4439.15 4325.28C4425.96 4315.57 4414.62 4307.47 4395.08 4284.28C4357.78 4243.52 4338.98 4162.63 4347.58 4118.69C4350.67 4094.43 4357.22 4074.22 4364.31 4057.84C4366.04 4053.81 4368.04 4049.59 4369.63 4046.41C4370.89 4043.91 4372.15 4041.49 4373.41 4039.16C4375.95 4034.51 4378.49 4030.2 4381.02 4026.18C4391.18 4010.13 4400.87 3998.54 4409.78 3988.86C4422.48 3975.19 4433.54 3965.59 4444.33 3956.89C4655.44 3790.4 4856.57 3630.36 5051.68 3486.86C5060.43 3480.44 5069.27 3473.98 5078.18 3467.48C5190.32 3383.58 5334.09 3288.07 5465.04 3228.16C5650.73 3139.04 5834.06 3057.51 6027.83 2964.99C6063.15 2948.17 6001.67 2924.74 6044.73 2904.16C6105.85 2874.93 6167.52 2846.02 6225.4 2818.12C6424.57 2720.23 6651.65 2604.44 6879.55 2521.21C7067.85 2450.91 7254.83 2386.39 7442.64 2323.47C7490.03 2307.63 7446.16 2370.27 7494.47 2356.7C7615.71 2322.18 7767.86 2283.02 7908.84 2229.54C8112.02 2153.23 8294.6 2042.42 8324.42 1900.33C8363.35 1879.35 8402.81 1856.6 8441.08 1832.6C8578.99 1746.55 8714.67 1648.22 8844.79 1575.33C8924.41 1531.58 8912.88 1578.04 8940.49 1564.52C8950.71 1559.65 8966.34 1546.5 8994.13 1517.04C9016.85 1492.96 8958.88 1489.32 8994.74 1455.53C9045.72 1407.4 9100.16 1359.87 9153.52 1312.61C9180.12 1289.03 9206.6 1265.39 9231.13 1242.26C9243.22 1230.84 9254.98 1219.36 9264.01 1209.76C9268.26 1205.27 9272.43 1200.44 9272.57 1199.95C9272.57 1199.92 9272.48 1199.99 9272.29 1200.19C9272.19 1200.29 9272.07 1200.42 9271.93 1200.59C9271.76 1200.78 9271.54 1201.05 9271.28 1201.36C9270.77 1202 9270.08 1202.88 9269.19 1204.1C9268.39 1205.19 9267.02 1207.11 9265.21 1209.96C9262.13 1216.01 9255.29 1221.77 9245.03 1257.46C9242.35 1284.08 9219.56 1320.86 9274.53 1411.19C9343.48 1492.88 9388.2 1483.02 9416.07 1488.25C9438.06 1487.46 9404.72 1492.93 9375.43 1504.3C9344.67 1515.07 9311.22 1527.6 9278.92 1540.26C9237.97 1556.32 9259.2 1587.04 9248.76 1596.59C9168 1668.48 9003.08 1639.7 8946.71 1635.33C8942.36 1634.71 8938.52 1634.45 8935.6 1634.6C8675.27 1654.2 8485.66 1743.15 8250.81 1833.05C8195.85 1854.49 8277.95 1873.08 8226.14 1895.23C8197.45 1907.48 8168.91 1919.71 8139.91 1932.15C8033.36 1977.41 7945.1 2020.67 7822.6 2077.14C7700.01 2130.88 7556.32 2203.57 7416.43 2259.05C7354.06 2283.98 7391.77 2220.69 7361.18 2230.63C7226.66 2274.11 7230.41 2356.33 7100.62 2396.13C7073.06 2404.6 7073.79 2366.37 7067.5 2364.99C7026.42 2355.42 6997.32 2368.73 6975.49 2388.22C6949.39 2413.19 6938.78 2450.05 6929.54 2455.67C6773.43 2555.5 6615.66 2588.06 6456.06 2646.18C6407.41 2664.21 6357.61 2685.5 6306.35 2713.39C6279.95 2727.83 6360.08 2738.03 6284.64 2776.22C6085.29 2877.14 5878.8 2974.94 5674.42 3070.99C5552.88 3127.63 5449.54 3180.52 5315.38 3245.42C5152.23 3325.76 4950.07 3442.31 4760.96 3525.46C4680.43 3561.51 4720.88 3503.15 4714.1 3502.13C4605.76 3486.99 4591.74 3588.22 4567.06 3603.76C4563.21 3606.13 4559.32 3608.47 4555.41 3610.78C4372.21 3720.23 4165.16 3755.73 4063.85 3907.8C4014.94 3927.31 3965.52 3946.03 3915.52 3963.72C3679.25 4040.94 3485.23 4162.71 3178.53 4238.31C3082.24 4255.49 2985.02 4272.09 2881.35 4282.63C2828.97 4287.63 2776.32 4291.75 2713.52 4289.02C2681.48 4287.07 2648.16 4285.1 2600.37 4270.64C2576.61 4262.67 2546.43 4252.26 2509.66 4221.4C2472.49 4192.85 2435.62 4124.01 2436.22 4069.93C2424.62 3942.59 2494.12 3786.18 2578.29 3706.14C2725.73 3538.2 2942.5 3363.03 3148.07 3255.89C3256.76 3196.28 3365.69 3142.34 3476.03 3090.63C3486.78 3085.49 3489.82 3132.37 3511.15 3121.98C3748.4 3007.3 3698.9 2974.52 3784.92 2841.42C3792.18 2830.26 3800.03 2818.6 3809.12 2806.06C3838.85 2765.6 4008.95 2773.63 4028.35 2771.36C4088.48 2768.13 4068.94 2849.6 4086.8 2845.65C4098.8 2843.18 4108.94 2840.03 4117.66 2836.19C4205.01 2795.38 4120.58 2645 4259.03 2571.47C4263.99 2569.2 4261.75 2613.42 4276.43 2609.85C4321.76 2599.04 4354.29 2564.53 4399.82 2555.07C4493.39 2536.07 4566.26 2592.17 4660.36 2513.69C4670.6 2505.07 4681.77 2494.43 4692.72 2482.11C4706.81 2466.31 4625.85 2376.34 4766.99 2309.68C4823.1 2283.12 5066.78 2156.59 5138.91 2128.87C5210.91 2101.02 5180.78 2158.42 5186.42 2157.4C5393.56 2108.99 5332.7 2162.75 5458.23 2182.53C5583.38 2202.45 5479.9 2058.21 5509.34 2021.87C5518.46 2010.46 5540.98 1999.33 5567.85 1989.88C5625.79 1969.34 5706.89 1955.41 5734.11 1953.56C5774.1 1950.75 5741.93 1992.06 5775.34 1985.5C5996.69 1943.68 5828.34 1866.43 5883.81 1811.57C5932.45 1763.98 5985.38 1743.83 6041.49 1733.66C6136.24 1716.63 6239.57 1729.44 6331.72 1695.61C6371.27 1681.06 6327.75 1668.64 6360.45 1650.37C6489.84 1578.13 6588.34 1576.45 6722.1 1468.25C6731.61 1460.51 6753.54 1431.09 6783.26 1401.35C6821.86 1362.98 6873.32 1324.08 6931.62 1329.3C6946.45 1330.68 6930.84 1376 6989.38 1352.53C7075.03 1318.35 7222.34 1242.5 7295.97 1177.09C7297.57 1175.7 7299.15 1174.33 7300.72 1172.95C7360.1 1122.41 7256.53 1127.84 7347.48 1087.37C7387.8 1070.16 7337.9 1139.33 7411.54 1105.58C7484.43 1071.89 7657.46 968.468 7719.37 927.06C7779.67 885.69 7721.95 875.15 7725.92 869.413C7727.5 866.486 7729.86 862.916 7731.59 859.678C7732.68 857.895 7733.68 856.131 7734.18 854.724C7734.31 854.371 7734.4 854.039 7734.47 853.734C7734.57 853.394 7734.64 853.085 7734.63 852.838C7734.61 852.343 7734.32 852.063 7733.64 852.185C7733.1 852.174 7731.5 853.129 7728.84 855.715C7728.17 856.377 7727.42 857.162 7726.58 858.114C7726.15 858.59 7725.71 859.108 7725.25 859.675C7725.13 859.817 7725.01 859.961 7724.89 860.109C7724.77 860.261 7724.67 860.388 7724.46 860.667C7724.09 861.161 7723.7 861.687 7723.3 862.25C7720.16 866.799 7715.78 873.358 7711.66 885.804C7709.79 892.536 7707.47 897.731 7707.14 915.401C7707.02 931.089 7711.93 951.551 7722.48 967.941C7727.63 976.139 7733.8 983.211 7739.99 988.802C7744.69 993.057 7748.78 996.077 7752.96 998.801C7761.23 1004.14 7768.54 1007.25 7774.55 1009.35C7780.59 1011.43 7785.42 1012.5 7789.36 1013.22C7789.85 1013.31 7790.33 1013.39 7790.8 1013.47C7791.06 1013.51 7791.18 1013.53 7791.32 1013.55C7791.45 1013.58 7791.58 1013.6 7791.72 1013.62C7792.24 1013.72 7792.75 1013.8 7793.25 1013.88C7794.23 1014.04 7795.15 1014.17 7796.01 1014.28C7799.45 1014.73 7801.95 1014.92 7803.84 1015.07C7807.83 1015.31 7808.26 1015.54 7808.92 1015.86C7809.44 1016.17 7809.26 1016.56 7808.69 1017.04C7807.82 1017.96 7805.88 1019.1 7803.1 1020.52C7773.05 1038.65 7712.24 1069.3 7706.65 1071.16C7535.11 1135.02 7363.56 1196.22 7187.99 1247.8C6939.47 1329.92 6672.85 1444.24 6417.83 1554.59C6266.54 1621.26 6114.54 1692.47 5963.94 1770.12C5919.76 1792.84 5967.87 1817.36 5961.32 1821.22C5814.45 1910.23 5887.99 1750.09 5763.71 1766.66C5816.27 1837.66 5745.91 1853.5 5641.05 1913.36C5590.84 1942.12 5633.54 1959.1 5630.24 1964.45C5573.95 2047.24 5492.13 2012.97 5472.23 2007.44C5399.88 1986.72 5368.28 2066.17 5319.4 2052.53C5270.38 2039.21 5330.51 1957.26 5226.14 2006.84C5210.11 2048.59 5321.76 2085.8 5248.26 2134.71C4970 2320.26 4382.69 2521.46 4137.34 2624.19C3892.49 2727.2 3816.21 2766.89 3669.97 2818.7C3624.34 2834.78 3589.51 2848.68 3563.7 2860.62C3437.86 2918.52 3497.47 2942.09 3373.59 3019.22C3222.93 3112.23 3244.71 2942.59 3209.39 2922.92C3174.33 2903.07 3162.01 2943.58 3127.56 2938.86C3092.64 2934.31 3145.61 2889.2 3076.69 2910.38C3008.52 2931.52 2848.42 3056.2 2836.69 3096.24C2812.04 3181.35 2922.21 3218.41 2734.35 3262.7C2723.6 3265.14 2742.84 3216.21 2702.44 3227.35C2386.32 3315.69 2063.51 3425.05 1740.66 3484.05C1735.03 3485.08 1729.44 3486.09 1723.91 3487.07C1678.98 3494.88 1707.58 3442.8 1681.22 3446.84C1407.93 3484.37 1522.09 3531.97 1383.35 3640.69C1400.17 3530.64 1306.85 3493.23 1138.72 3489.1C1131.42 3488.5 1123.74 3487.7 1119.59 3486.98C1118.26 3486.75 1117.5 3486.56 1118.02 3486.75C1118.62 3487.06 1120.26 3487.13 1126.71 3490.87C1129.82 3492.81 1134.85 3496.02 1140.85 3503.06C1147.03 3510.1 1153.44 3522.77 1154.72 3535.06C1156.53 3560.43 1148.83 3567.4 1147.41 3570.79C1145.22 3574.01 1144.74 3573.93 1144.85 3573.48C1144.98 3572.94 1145.72 3571.69 1146.72 3570.15C1148.75 3567.05 1151.74 3562.87 1154.96 3557.83C1182.67 3505.91 1156.21 3482.7 1188.43 3418.43C1200.67 3394.07 1290.83 3364.77 1290.51 3337.74C1290.38 3248.35 1172.95 3230.81 1372 3130C1380.71 3125.84 1378.36 3175.69 1406.83 3158.9C1435 3142.34 1458 3127.01 1478.52 3111.59C1602.36 3023.49 1627.71 2958.51 1793.21 2866.48C1817.71 2852.91 1845.75 2838.88 1876.38 2824.23C2035.38 2746.9 2273.67 2666.07 2417.68 2598.49C2428.82 2592.61 2436.18 2589.65 2442.43 2587.02C2490.63 2696.87 2656.48 2601.33 2691.69 2492.28C2810.54 2442.47 2931.83 2374.18 3044.82 2320.83C3083.66 2302.39 3077.47 2346.87 3084.05 2347.38C3092.6 2348.06 3100.54 2347.95 3107.91 2347.15C3188.96 2338.37 3198.54 2254.17 3220.53 2238.38C3342.08 2153.17 3464.88 2098.57 3582.62 2043.3C3712.79 1980.56 3872.52 1918.61 3965.72 1834.34C3965.8 1834.06 3965.45 1833.24 3964.7 1832.09C3965.48 1814.33 3938.26 1755.9 4025.09 1756.56C4031.96 1756.21 3983.77 1846.73 4088.85 1762.2C4149.37 1713.3 4249.97 1640.64 4363.27 1574.64C4444.26 1527.89 4524.09 1475.96 4585.91 1417.68C4620.43 1384.93 4686.05 1264.26 4794.21 1260.53C4808.75 1260.09 4809.71 1287.89 4832.2 1289.79C4872.59 1292.94 4884.92 1266.31 4904.21 1246.6C4919.88 1230.76 4940.63 1219.06 4983.59 1229.95C5081.7 1254.3 5227.16 1228.81 5375.4 1097.4C5380.03 1093.43 5390.47 1012.27 5446.45 986.341C5504.63 959.39 5581.47 930.74 5654.02 903.181C5692.03 888.702 5728.23 872.853 5759.48 856.899C5803.08 834.374 5755.82 811.44 5763.02 806.898C5961.36 683.864 6123.29 594.976 6307.05 479.085C6378.05 433.728 6452.45 384.281 6529.47 323.778C6537.97 317.077 6548.25 306.407 6559.05 293.41C6564.62 286.737 6570.23 279.584 6575.67 271.919C6578.28 268.2 6581.09 264.073 6582.88 260.626C6583.38 259.698 6583.75 258.876 6583.85 258.376C6583.95 258.07 6583.95 257.869 6583.81 257.905C6583.74 257.926 6583.65 257.987 6583.5 258.166C6583.31 258.421 6583.04 258.852 6582.7 259.618C6582.54 260.003 6582.35 260.474 6582.17 261.067C6582.08 261.363 6581.98 261.69 6581.9 262.054C6581.85 262.235 6581.81 262.426 6581.77 262.627C6581.7 262.945 6581.64 263.325 6581.59 263.72C6581.16 266.663 6581.19 272.983 6585.67 278.962C6590.15 285.002 6596.72 287.001 6599.92 287.365C6600.35 287.423 6600.75 287.464 6601.12 287.492C6601.37 287.514 6601.55 287.527 6601.76 287.539C6602.15 287.563 6602.52 287.573 6602.85 287.576C6603.51 287.581 6604.06 287.556 6604.51 287.525C6605.42 287.461 6605.98 287.379 6606.34 287.341C6606.61 287.322 6606.73 287.337 6606.82 287.362C6606.99 287.414 6606.91 287.544 6606.67 287.754C6534.86 331.004 6441.17 386.227 6354.12 391.327C6208.71 400.804 6256.37 153.546 5984.25 329.312C5919.53 371.827 5878.9 495.574 5806.46 588.138C5758.69 651.835 5687.4 698.385 5580.35 686.035C5254.22 862.414 4913.7 950.819 4580.8 1098.68C4517.39 1126.76 4452.6 1157.59 4388.41 1191.41C4371.27 1200.5 4338.09 1292.03 4294.9 1308.05C4228.97 1332.4 4181.69 1314.47 4134.07 1330.85C3936.3 1397.86 3769.52 1494.63 3580.36 1563.88C3508.81 1590.13 3520.9 1547.6 3435.19 1579.03C3349.97 1610.3 3310.2 1675.63 3187.16 1699.66C3094.21 1717.65 2972.98 1663.26 2853.85 1697.88C2883.43 1786.66 2803.66 1815.72 2671.98 1893.54C2646.71 1908.53 2687.48 1927.55 2676.14 1936.2C2630.4 1972.03 2572.09 1965.82 2529.54 2001.99C2519.17 2010.73 2530.12 2040.72 2522.23 2049.58C2455.6 2126 2292.23 2112.6 2263.81 2110.26C2156.09 2101.28 2128.39 2156.63 2052.57 2166.11C1975.98 2175.9 2071.75 2113.49 1986.26 2134.64C1809.88 2178.21 1595.53 2267.34 1424.75 2332.54C1356.7 2358.74 1418.54 2380.3 1409.18 2384.96C1321.35 2426.78 1223.13 2447.75 1153.62 2485.95C1113.14 2507.88 1084.51 2533.87 1066.56 2573.42C889.582 2407.31 989.256 2626.59 772.821 2665.16C755.894 2668.06 696.757 2579.88 752.791 2541.25C807.413 2503.19 911.581 2496.89 987.244 2441.58C1001.61 2431.2 1052.61 2345.36 1081.8 2303.06C1089.12 2291.85 1094.86 2283.82 1097.68 2281.36C1203.85 2190.26 1277.07 2328.17 1287.05 2333.4C1393.08 2390.58 1496.25 2237.79 1529.67 2216.97C1686.34 2120.18 1837.62 2084.61 1969.99 2007.61C2056.44 1957.49 2029.18 1859.1 2102.32 1833.93C2346.84 1749.68 2482.36 1848.96 2664.58 1646.04C2703.65 1602.68 2615.01 1518.1 2820.97 1531.46C2833.91 1532.31 2992.27 1556.25 3048.67 1479.98C3055.74 1470.39 3043.67 1440.36 3055.06 1433C3131.5 1384.26 3196.1 1386.69 3282.12 1339.79C3367.65 1293.08 3470.01 1233.24 3576.72 1203.17C3641.46 1184.83 3742.99 1209.72 3778.13 1211.77C3877.48 1218.41 3942.12 1118.03 4012.8 1145.5C4084.04 1173.02 4010 1286.73 4160.38 1263.31C4134.58 1183.12 4114.51 1098.28 4091.53 1016.46C4224.24 965.419 4357.64 918.942 4490.35 872.348C4661.14 812.288 4828.88 752.83 4995.57 681.914C5032.3 666.174 4977.33 639.976 5016.4 621.942C5179.4 546.536 5338.78 514.884 5497.56 428.522C5556.33 396.285 5608.17 356.665 5660.76 312.742C5738.48 254.655 5807.49 204.881 5881.1 163.942C6009.46 210.376 6207.1 87.7137 6365.17 31.1884C6420.42 11.3006 6426.69 36.5571 6468.35 28.3117C6478.87 26.2053 6488.28 23.997 6496.68 21.7069C6504.87 18.4817 6514.64 14.8172 6529.03 10.8587C6535.4 9.10799 6551.75 4.88351 6570.74 2.74063C6594.02 2.9964 6602.51 -9.375 6691.6 16.4478C6731.05 29.9331 6781.79 61.5828 6815.98 108.964C6850.73 155.739 6864.42 209.122 6866.8 247.093C6868.01 331.917 6856.69 334.9 6851.44 356.757C6837.35 393.057 6831.35 399.183 6825.68 409.042C6804.83 440.264 6800.6 442.228 6793.63 450.583C6782.49 462.717 6775.97 469.173 6770.8 474.822C6760.22 486.203 6754.68 493.673 6750.72 500.831C6743.45 514.469 6744.95 524.224 6748.94 532.991C6756.97 550.418 6776.38 562.469 6762.5 582.982C6671.71 715.71 6578.07 668.556 6464.59 691.235C6423.41 699.183 6379.86 715.391 6331.67 750.543C6323 757.534 6257.69 924.824 6242.6 941.299C6153.5 1046.57 6205.43 922.919 6132.01 959.234C6001.05 1021.9 5906.32 1049.75 5760.7 1143.69C5755.72 1146.98 5750.73 1150.37 5745.72 1153.86C5707.08 1180.72 5635.38 1283.88 5535.38 1278.44C5522.18 1277.76 5512.9 1244.52 5503.56 1246.95C5337.11 1294.13 5383.64 1391.82 5320.03 1468.69C5271.71 1527.68 5167.47 1548.82 5103.17 1556.83C5081.09 1560.67 5063.91 1562.12 5054.55 1562.1C4979.4 1561.74 5037.21 1533.03 5075.29 1513.35C5087.74 1507.13 5097.7 1502.26 5097.88 1500.43C5102.33 1457.6 5080.43 1456.07 5047.82 1470.52C5016.01 1485.24 4975.16 1511.9 4938.62 1531.36C4872.75 1449.27 4772.8 1518 4858.81 1574.29C4868.42 1580.29 4920.96 1536.63 4938.62 1531.36C4926.02 1659.38 4821.59 1738.58 4646.62 1735.91C4573.86 1734.83 4586.96 1672.19 4474.35 1748.32C4462.07 1756.72 4448.19 1767.5 4432.46 1781.42C4368.83 1839.58 4440.27 1875.65 4393.98 1939.14C4347.9 2001.89 4280.52 2065.46 4176.36 2131.97C4134.6 2158.9 4117.54 2164.02 4097.25 2172.93C4078 2180.77 4061.44 2186.71 4045.14 2192.47C4012.82 2203.8 3982.71 2213.71 3953.56 2223.94C3895.3 2244.31 3840.87 2265.89 3793.36 2292.41C3733.58 2326.04 3810.64 2331.94 3770.87 2356.1C3763.2 2360.8 3755.78 2365.16 3748.07 2369.5C3643.42 2428.17 3537.96 2453.69 3443.75 2521.28C3434.64 2527.91 3478.28 2550.9 3445.12 2569.79C3393.87 2599.31 3344.29 2627.74 3294.77 2656.33C3079.56 2783.01 2820.73 2883.47 2611.78 2965.34C2611.96 2965.2 2613.04 2964.92 2621.41 2960.3C2455.83 3049.33 2242.74 3176.37 2100.84 3246.86C2099.98 3247.28 2099.11 3247.71 2098.25 3248.13C1958.38 3318.41 1775.75 3374.89 1686.02 3418.47C1566.89 3483.7 1454.81 3551.76 1385.88 3617.14C1314.33 3687.46 1355.06 3688.67 1354.86 3724.16C1347.32 3739.28 1341.68 3750.8 1347.05 3750.56C1350.25 3749.37 1355.65 3747.92 1374.38 3723.79C1383.63 3710.44 1398.15 3693.08 1415.67 3643.13C1433.15 3599.24 1447.96 3479.34 1392.71 3381.07C1343.24 3292.53 1291.8 3264.48 1264.12 3246.42C1233.94 3228.86 1217.85 3223.17 1204.38 3217.92C1179.42 3208.82 1170.37 3206.73 1163.3 3204.35C1150.58 3200.3 1150.65 3199.04 1152.03 3197.73C1190.35 3183.47 1391.21 3226.34 1413.24 3234.17C1414.06 3235.06 1296.17 3266.61 1363.81 3275.77C1409.58 3312.09 1412.05 3234.57 1413.24 3234.17C1427.93 3239.19 1570.86 3214.77 1663.03 3189.51C1693.18 3181.48 1717.64 3173.85 1729.55 3168.53C1754.91 3157.04 1729.6 3123.53 1743.1 3118.2C2062.37 2992.12 2386.62 2864.35 2725.38 2751.11C2731.44 2749.58 2738.71 2793.66 2752.82 2789.51C2952.87 2731.35 3055.72 2630.84 3200.98 2535.19C3264.33 2493.42 3323.92 2461.6 3382.37 2440.78C3456.83 2414.35 3528.58 2406.76 3598.35 2422.33C3713.42 2361.49 3897.46 2315.45 4003.98 2289.36C4110.74 2263.19 4088.91 2179.63 4096.94 2174.16C4343.58 2002.84 4519.1 1975.4 4801 1852.71C4935.12 1794.5 5192.57 1660.35 5332.02 1584.47C5442.33 1524.34 5518.51 1510.48 5617.82 1449.61C5631.09 1441.47 5600.81 1413.89 5604.46 1410.56C5702.12 1314.46 5685.19 1424.75 5716.28 1428.37C5829.57 1441.42 5896.85 1445.06 6034.46 1348.99C6065.59 1327.17 6110.2 1158.91 6169.99 1122.29C6185.7 1112.73 6197.55 1107.56 6207.29 1104.89C6248.17 1093.32 6252.4 1122.93 6318.47 1081.91C6325.48 1077.61 6310.98 1051.82 6365.28 1028.02C6570.94 940.083 6749.28 859.609 7026.88 760.851C7078.86 744.554 7133.12 725.703 7186.97 705.675C7221.96 692.737 7161.09 665.059 7211.35 645.578C7275.94 620.5 7343.31 594.474 7412.92 568.588C7447.99 555.556 7483.24 542.684 7520.64 529.565C7539.16 523.079 7558.41 516.452 7579.44 509.519C7589.9 506.078 7601.15 502.433 7613.97 498.476C7628.83 494.053 7637.53 490.805 7673.26 482.041C7696.8 477.661 7704.23 471.812 7781.98 466.619C7794.59 466.129 7809.19 465.966 7827.28 466.945C7836.33 467.445 7846.27 468.244 7857.38 469.58C7858.77 469.747 7860.18 469.924 7861.6 470.109C7862.32 470.201 7863.04 470.296 7863.76 470.393C7863.94 470.418 7864.12 470.442 7864.3 470.467C7864.5 470.494 7864.59 470.506 7864.96 470.557C7865.58 470.641 7866.2 470.727 7866.82 470.815C7871.8 471.518 7877.02 472.336 7882.48 473.3C7893.41 475.23 7905.36 477.735 7918.51 481.171C7944.79 488.105 7976.23 498.496 8013.11 517.644C8031.51 527.242 8051.19 539.106 8071.52 554.056C8081.67 561.524 8091.98 569.771 8102.26 578.83C8116.79 591.63 8131.52 606.326 8145.53 622.602C8274.71 751.503 8257.02 1004.17 8237.77 1032.84C8218.9 1099.27 8195.92 1136.02 8178.37 1163.31C8176.13 1166.69 8173.94 1169.89 8171.8 1172.95C8170.25 1175.16 8169.02 1176.88 8167.66 1178.76C8165 1182.43 8162.42 1185.87 8159.92 1189.13C8154.92 1195.64 8150.24 1201.39 8145.84 1206.59C8128.3 1227.25 8114.35 1240.43 8107.05 1247.31C8098.47 1255.33 8091.06 1261.74 8084.31 1267.37C8078.2 1272.46 8073.84 1275.9 8069.08 1279.6C8064.49 1283.16 8059.95 1286.58 8056.04 1289.46C8052.54 1292.03 8049.16 1294.45 8045.87 1296.78C8031.97 1306.59 8022.69 1312.61 8012.55 1319.12C7975.29 1342.74 7946.55 1358.76 7917.84 1374.65C7861.29 1405.68 7809.08 1432.22 7759.23 1456.8C7705.46 1483.18 7720.25 1435.79 7704.14 1434.26C7617.33 1426.89 7573.88 1525.74 7564.13 1553.75C7559.9 1559.69 7556.41 1563.99 7553.92 1565.98C7357.45 1719.98 7195.82 1795.64 7026.92 1875.53C6801.41 1979.34 6583.11 2064.25 6339.53 2197.45C6331.03 2202.12 6306.36 2226.9 6272.46 2254.92C6211.74 2304.95 6123.13 2363.65 6055.58 2338.55C6048.17 2336.04 5940.88 2295.47 5897.27 2376.97C5894.78 2381.99 5958.98 2397.26 5875.63 2432.18C5853.45 2441.55 5828.58 2454.77 5801.44 2469.54C5726.15 2510.53 5632.71 2563.8 5532.42 2576.63C5489.3 2582.22 5366.27 2554.28 5285.55 2666.91C5280.26 2674.52 5177.32 2889.11 5071.97 2831.33C5054.87 2821.73 5016.37 2722.65 4911.54 2837.91C4891.71 2860.04 4947.45 2857.53 4889.24 2904.44C4883.55 2909.02 4877.74 2913.45 4871.84 2917.74C4781.65 2982.52 4649.78 3027.67 4554.83 3128.47C4535.6 3147.74 4483.96 3258.63 4358.84 3258.7C4338.65 3258.67 4356.18 3212.18 4297.41 3234.4C4295.29 3235.18 4293.17 3235.96 4291.04 3236.74C4312.95 3220.27 4254.97 3251.13 4215.42 3274.66C4172.44 3299.73 4128.99 3325.96 4085.75 3351.71C3984.61 3411.93 3884.84 3471.13 3780.1 3517.67C3711.66 3548.17 3715.4 3479.78 3640.93 3506.26C3574.15 3529.96 3452.46 3587.54 3393.06 3644.61C3386.4 3650.97 3380.6 3657.24 3375.74 3663.43C3327.76 3725.7 3442.55 3758.23 3359.11 3823.17C3229.94 3925.66 3174.73 3980.59 3032.54 4131.09C3029.05 4133.35 3036.99 4124.36 3045.07 4100.81C3053.68 4078.37 3054.29 4043.2 3051.77 4045.08C3053.76 3944.52 2976.51 3802.98 2910.58 3755.36C2845.37 3702.02 2806.56 3693.07 2784.36 3685.48C2761.89 3679.1 2751.67 3678.48 2746.4 3678.16C2741.09 3677.97 2740.69 3678.62 2742.39 3679.21C2750.93 3681.96 2785.76 3682.94 2821.44 3681.32C2895.08 3678.18 2983.53 3667.82 3073.16 3654.82C3083.42 3655.98 3137.28 3641.09 3190.51 3620.57C3255.33 3595.46 3187.15 3588.84 3287.36 3545.63C3392.93 3499.66 3530.76 3434.61 3688.4 3371.67C3867.44 3301.17 4078.44 3182.18 4302.57 3084.64C4435.95 3027.58 4558.26 2974.59 4659.44 2940.84C4935.28 2845.75 4642.67 3063.6 4845.48 2971.81C4942.89 2926.87 4996.83 2772.25 5033.64 2750C5043.22 2743.77 5053.62 2737.34 5064.85 2730.86C5157.45 2663.05 5306.26 2594.7 5419.89 2547.92C5496.48 2515.6 5572.16 2483.22 5650.67 2439.78C5693.28 2416.21 5631.82 2398.1 5668.33 2378.45C5792.47 2311.2 5933.9 2265.33 6051.86 2204.77C6104.7 2177.49 6080.48 2152.93 6130.38 2131.52C6150.66 2122.74 6170.89 2114.21 6190.29 2106.32C6285.68 2067.39 6374.97 2037.34 6479.97 2010.97C6491.49 2008.1 6440.83 2080.42 6527.59 2036.75C6593.87 2003.56 6678.01 1966.32 6776.99 1928.09C6865.77 1894.84 6954.59 1856.03 7031.7 1801.96C7075 1771.27 7044.5 1703.71 7166.47 1701.59C7192.01 1700.84 7205.35 1795 7286.78 1667C7299.71 1649.36 7398.2 1509.79 7540.9 1460.86C7553.98 1458.21 7574.72 1455.22 7595.31 1457.27C7628.54 1460.73 7734.91 1490.27 7794.74 1451.07C7802.88 1445.45 7750.88 1424.64 7803.66 1396.98C7835.39 1380.61 7867.61 1365.06 7900.28 1350.1C8052.34 1280.18 8214.07 1219.42 8373.31 1153.54C8424.57 1132.39 8332.63 1119.84 8410.37 1089.49C8521.68 1046.93 8642.06 1007.75 8793.37 974.707C8902.68 952.472 9007.33 931.572 9099.77 911.599C9170.74 896.139 9132.29 943.034 9138.18 945.236C9236.68 983.214 9271.46 870.461 9429.56 863.067C9434.55 862.986 9439.58 862.975 9444.61 863.034C9487.44 865.318 9547.65 871.963 9624.02 909.728C9698.81 938.437 9827.33 1071.76 9849.93 1185.24C9875.11 1282.79 9865.7 1340.58 9857.84 1387.48C9855.64 1398.88 9853.16 1409.33 9850.64 1418.73C9848.91 1425.21 9847.14 1431.29 9845.34 1437.02C9841.76 1448.48 9838.12 1458.57 9834.57 1467.64C9827.46 1485.72 9820.61 1500.02 9814.54 1511.79C9810 1520.62 9805.76 1528.24 9801.78 1535.06C9793.99 1548.44 9786.25 1560.09 9782 1566.4C9772.11 1581.02 9763.92 1591.8 9758.22 1599.28C9755.15 1603.28 9752.22 1607.01 9749.4 1610.54C9746.89 1613.71 9744.65 1616.5 9742.37 1619.3C9724.42 1641.23 9712.67 1654.26 9701.45 1666.54C9679.28 1690.61 9660.86 1708.6 9642.63 1725.47C9606.45 1758.82 9572.33 1785.84 9538.31 1811.73C9470.38 1863.3 9403.94 1909.08 9338.91 1968.53C9302.79 2001.35 9354.28 2009.97 9348.93 2018.81C9341.15 2031.13 9334.69 2039.84 9329.17 2045.82C9299.76 2079.32 9299.24 2010.94 9256.79 2037.15C9125.58 2119.97 8959.94 2259.66 8810.43 2366.64C8802.26 2372.55 8793.97 2378.47 8785.83 2384.22C8720.73 2429.37 8820.3 2418.61 8760.77 2458.43C8551.6 2595.07 8350.58 2688.01 8151.11 2771.82C8013.27 2829 7878.86 2877.69 7746.96 2920.83C7685.85 2940.66 7709.95 2893.03 7694.58 2890.69C7588.56 2873.7 7493.16 2994.07 7467.3 3012.23C7350.13 3094.83 7288.23 3086.03 7178.22 3136.41C7164.19 3142.86 7150.01 3149.35 7136.27 3155.65C6945.05 3241.55 6767.82 3336.81 6528.37 3453.12C6252.27 3581.28 6000.51 3691.43 5765.11 3807.29C5684.35 3846.62 5633.59 3875.17 5566.39 3921.53C5536.04 3942.4 5502.39 3966.44 5467.86 3990.84C5240.28 4151.62 5017.8 4305.79 4827.52 4440.92C4834.23 4435.36 4844.09 4427.1 4858.48 4411.84C4866.89 4402.9 4880.64 4387.38 4895.08 4365.99C4902.41 4355.13 4910.26 4342.36 4918.21 4326.93C4927.26 4309.61 4941.17 4278.13 4949.78 4243.18C4958.76 4207.64 4964.21 4163.93 4960.54 4116.4C4957.3 4066.69 4940.29 4005.75 4914.67 3959.06C4890.25 3912.27 4853.19 3871.41 4830.63 3851.69C4807.98 3831.33 4786.68 3816.77 4767.94 3805.71C4749.16 3794.66 4732.82 3787.08 4718.69 3781.32C4705.2 3775.9 4698.57 3773.76 4690.01 3771.05C4673.98 3766.1 4661.69 3763.42 4651.85 3761.58C4619.85 3756.2 4614.29 3757.75 4610.85 3757.67C4608.07 3757.93 4610.15 3758.26 4613.73 3758.35C4629.17 3758.76 4662.04 3756.23 4694.08 3752.62C4759.51 3745.28 4832.52 3733.77 4905.76 3720.76C5052.23 3694.52 5207.3 3661.34 5357.64 3622.42C5391.41 3613.54 5425.09 3603.24 5461.32 3590.83C5497.34 3578.38 5446.12 3546.45 5476.94 3534.98C5588.57 3493.31 5721.34 3440.55 5852.24 3392.88C6145.32 3281.04 6483.89 3129.93 6806.38 2976.9C6841.49 2960.2 6778.36 2944.75 6822.45 2917.81C6824.74 2916.4 6827.33 2914.96 6830.26 2913.49C6949.6 2853.04 7105.56 2785.82 7235.19 2743.11C7298.37 2722.21 7232.79 2793.07 7296.12 2771.31C7443.53 2720.74 7596.93 2655.31 7740.22 2583.57C7801.36 2552.88 7688.92 2553.69 7769.68 2517.09C7881.51 2466.25 7993.03 2415.55 8106.57 2365.49C8318.93 2270.56 8568.16 2172.38 8767.85 2101.65C9006.53 2014.03 9246.26 1930.17 9543.17 1884.48C9556.15 1882.71 9570.01 1888.48 9576.4 1898.49C9582.86 1910.17 9577.31 1917.66 9517.92 1964.83C9536.32 1957.12 9554.23 1950.47 9578.27 1942.51C9590.59 1938.5 9603.97 1934.18 9624.73 1928.72C9635.26 1926.02 9647.22 1922.99 9666.46 1919.57C9686.82 1916.84 9706.9 1910.73 9768.78 1914.67C9799.61 1918.63 9848.28 1920.04 9928.5 1967.13C10017.2 2011.07 10100.8 2164.58 10096.9 2247.76C10100.2 2332.44 10083.1 2369.91 10073.3 2398.4C10063 2424.58 10053.2 2441.47 10046.5 2452.56C10017.9 2497.6 10005.8 2506.51 9994.22 2519.05C9973.04 2539.91 9961.09 2549.03 9949.99 2558.61C9944.17 2563.52 9938.58 2569.18 9933.31 2575.71C9944.45 2599.6 9964.11 2622.14 9979.25 2644.93C9782.14 2821.29 9550.1 2977.05 9364.43 3109.86C9117.31 3285.61 8872.51 3447.2 8618.85 3608.57C8381.53 3759.73 8123.43 3908.75 7910.54 4040.92C7864.46 4070.63 7819.55 4100.29 7777.03 4129.74C7750.09 4148.54 7823.8 4155.71 7772.93 4191.81C7718.47 4230.05 7657.68 4281.3 7654.18 4287.2C7692.31 4244.97 7700.18 4223.1 7704.75 4214.85C7708.63 4206.43 7707 4209.5 7704.59 4217.2C7699.3 4233.26 7689.91 4267.22 7678.65 4306.27C7655.65 4385.37 7623.53 4488.8 7564.55 4598.46C7509.79 4698.02 7462.33 4739.28 7428.7 4772.4C7411.87 4788.12 7397.52 4800.33 7389.48 4807.04C7385.62 4810.22 7383.23 4812.19 7385.65 4809.58C7386.96 4808.14 7389.41 4805.66 7394.91 4799.67C7400.57 4793.25 7408.58 4785.1 7425.39 4762.02C7430.32 4755.12 7436.12 4746.65 7442.97 4735.37C7446.4 4729.72 7450.09 4723.35 7454.06 4715.99C7458.14 4708.24 7461.57 4702.11 7469.53 4684.24C7483.05 4650.92 7501.93 4609.49 7506.71 4521.79C7509.56 4458.83 7497.23 4367.29 7447.55 4281.26C7396.37 4191.94 7325.47 4137.88 7269.39 4107.97C7211.28 4077.12 7162.71 4065.86 7125.65 4060.01C7104.34 4056.89 7097.62 4056.61 7087.18 4055.84C7077.5 4055.22 7068.67 4054.97 7060.54 4054.94C7028.45 4054.89 7005.46 4058.04 6990.66 4060.39C6967.12 4064.27 6952.31 4068.46 6942.93 4071.2C6926.75 4076.1 6920.24 4078.98 6916.74 4080.48C6912.94 4082.15 6912.22 4082.71 6912.06 4082.99C6912.61 4083.66 6923.92 4079.32 6935.17 4074.66C6958.45 4065.03 6987.37 4052.1 7016.37 4039.29C7075.05 4013.27 7137.9 3985.76 7202.92 3959.36C7243.33 3942.99 7263.3 4028.67 7370.99 3956.97C7376.2 3953.51 7392.48 3943.45 7414.4 3929.91C7487.51 3885.49 7595.9 3831.05 7624.32 3805.2C7629.64 3800.07 7581.65 3776.29 7639.86 3751.8C7768.44 3698.56 7884.91 3652.55 8003.29 3602.06C8241.4 3502.5 8454.39 3445.47 8650.29 3388.03C8660.47 3385.1 8666.96 3385.2 8671.18 3387.16C8681.41 3391.35 8679.41 3405.32 8681.63 3414.73C8682.05 3416.44 8682.6 3418 8683.37 3419.33C8685.75 3423.34 8690.4 3425.15 8699.86 3422.42C8922.27 3358.84 9103.93 3254.78 9333.11 3155.12L9320.97 3161.25C9367.3 3140.16 9413.48 3120.83 9459.49 3104.08C9629.84 3041.9 9606.15 3138.07 9724.04 3155.59C9732.94 3157.37 9772.91 3138.75 9798.9 3133.85L9800.23 3133.01C9825.88 3125.39 9846.17 3124.77 9858 3137.99C9929.66 3217.55 9943.17 3346.4 10023.9 3428.5C10043.8 3447.39 10175.2 3319.21 10123.3 3429.77C10122.9 3433.79 10066.9 3484.33 10039.2 3515.11L10042.6 3512.93C10015.5 3536.95 10005.1 3549.66 9998.87 3560.72C9987.09 3583.26 10041.6 3601.45 10012.6 3638.12C9984.32 3674.18 9928.68 3663.84 9881.35 3712.93C9834.27 3762.06 9882.03 3791.74 9771.43 3857.27ZM4483.33 2169.52C4591.25 2164.77 4541.98 2022.81 4458.83 2100.51C4454.88 2104.43 4477.81 2169.86 4483.33 2169.52ZM4738.64 912.407C4884.48 924.678 4931.1 800.797 4825.9 788.642C4722.12 775.884 4694.12 908.784 4738.64 912.407ZM3493.94 1456.73C3655.57 1449.27 3600.63 1243.02 3463.48 1342.81C3455.52 1348.52 3484.52 1457.17 3493.94 1456.73ZM9342.74 3380.69C9344.61 3381.88 9419.64 3347.14 9420.87 3344.56C9421.31 3343.18 9421.67 3341.86 9421.94 3340.6L9417.34 3342.92C9419.16 3331.53 9414.71 3325.5 9406.95 3323.33L9412.37 3320.6C9381.68 3311.51 9301.32 3358.5 9342.74 3380.69ZM2256.98 1995.8C2311.62 2005.29 2428.17 1924.33 2359.86 1912.67C2304.6 1903.4 2188.62 1984.13 2256.98 1995.8ZM6366.21 1760.09C6363.88 1758.74 6310.14 1781.33 6316.54 1792.23C6337 1827.52 6405.92 1783.02 6366.21 1760.09ZM125.593 2842.88C442.909 2717.47 697.751 2806.02 350.061 2925.78C287.119 2947.78 461.416 2819.7 377.132 2837.18C222.028 2869.85 171.571 3009.66 4.64193 3021.63C-26.253 3023.6 106.457 2849.38 126.055 2842.42C125.9 2842.57 125.747 2842.73 125.593 2842.88ZM4610.83 2308.56C4613.48 2309.53 4687.32 2277.51 4688.24 2274.92C4707.86 2213.57 4559.19 2278.01 4610.83 2308.56ZM3311.44 3236.65C3307.49 3235.68 3231.21 3278.7 3181.91 3309.58C3158.03 3324.49 3140.81 3336.2 3139.73 3338.38C3123.91 3385.55 3165.21 3381.9 3213.86 3360.27C3287.54 3327.5 3379.83 3252.86 3311.44 3236.65ZM2447.44 2588.33C2518.18 2507.02 2603.64 2466.76 2691.3 2492.39C2611.61 2525.27 2536.41 2554.19 2447.44 2588.33Z" fill="#B8D7D9"/>
</svg>
