<svg width="18196" height="14829" viewBox="0 0 18196 14829" fill="none" xmlns="http://www.w3.org/2000/svg">
<g clip-path="url(#clip0_96_465)">
<path d="M8547.11 1917.16C7886.64 2089.56 7244.18 2345.18 6628.74 2645.38C5922.81 2996.29 5254.88 3417.57 4635.31 3902.68C4560.26 3965.1 4482.2 4021.58 4407.15 4086.97L4181.99 4277.2C4106.93 4339.62 4034.88 4407.98 3962.83 4473.37L3854.75 4571.46L3539.53 4883.55L3338.39 5097.56C3269.34 5165.93 3203.29 5240.24 3140.24 5314.54C3077.2 5388.85 3011.15 5463.16 2948.11 5537.47L2764.98 5766.34C2731.95 5804.98 2701.93 5843.62 2671.91 5882.26L2584.85 6001.15L2410.72 6235.97L2245.6 6479.7C2182.56 6565.9 2125.52 6658.04 2071.48 6747.21C2059.47 6598.59 1939.39 5867.4 669.479 6057.63C672.481 6054.66 3884.78 2478.93 8547.11 1917.16Z" fill="#C7DBDE"/>
<path d="M9348.68 1851.77C9111.94 2035.65 8895.57 2243.89 8703.22 2472.98C8509.96 2703.8 8335.3 2949.27 8180.85 3207.15C8024.01 3464.23 7884.6 3731.33 7763.55 4006.71C7700.5 4140.47 7643.46 4280.17 7586.42 4419.87C7529.38 4559.57 7478.34 4699.27 7430.31 4841.94C7236.31 5409.64 7080.85 5989.55 6964.98 6577.78C6886.92 6976.08 6820.87 7377.34 6775.84 7781.58C6589.71 7665.66 4404.15 6366.75 2074.48 6773.96C2134.53 6678.84 2197.57 6586.7 2263.62 6494.56L2431.74 6253.8L2608.86 6018.98L2698.93 5903.06C2728.95 5864.42 2761.97 5828.76 2792 5790.11L2978.13 5564.22C3996.94 4370.99 5244.95 3389.97 6649.75 2678.08C6998.92 2499.27 7357.72 2339.52 7724.52 2199.53C8006.72 2092.53 8288.92 1994.44 8577.13 1914.18C8829.31 1881.49 9087.49 1860.68 9348.68 1851.77Z" fill="#C7DBDE"/>
<path d="M16887.1 7261.43C16610.9 7207.92 14170.1 6762.07 13035.3 7989.65L12963.3 7731.06C12867.2 7421.93 12765.1 7115.78 12666 6806.66L12497.9 6348.92L12413.9 6120.05L12371.8 6007.1C12359.8 5968.46 12341.8 5932.79 12326.8 5894.15C12200.7 5596.92 12083.6 5293.74 11939.5 5002.45C11671.2 4411 11356 3841.5 10996.9 3299.3L10930.8 3198.24L10858.8 3100.15L10714.7 2903.98C10666.6 2835.61 10615.6 2776.17 10564.5 2710.77C10513.5 2645.38 10465.5 2579.99 10411.4 2520.55L10249.3 2339.23C10192.3 2279.79 10135.2 2223.31 10078.2 2163.86C9964.42 2047.7 9840.89 1941.31 9708.94 1845.82C9839.87 1944.68 9961.46 2055.11 10072.2 2175.75C10126.2 2235.2 10183.3 2294.65 10237.3 2354.09L10396.4 2538.38C10447.5 2600.8 10495.5 2666.19 10546.5 2728.61C10598.9 2790.46 10648 2854.95 10693.6 2921.81L10834.7 3120.96L10903.8 3219.05L10969.8 3320.1L11098.9 3525.2L11165 3626.26L11225 3730.29C11306.1 3872.96 11390.1 4009.69 11468.2 4152.36L11693.4 4583.35C11729.4 4654.68 11765.4 4726.02 11798.4 4800.33L11900.5 5020.28C12044.6 5308.6 12161.7 5611.78 12290.8 5909.01C12308.8 5947.65 12323.8 5983.32 12338.8 6021.96L12380.8 6134.91L12464.9 6360.81L12636 6815.58C12738.1 7121.73 12843.2 7427.88 12942.2 7737L13017.3 7983.7C12738.1 7885.62 9360.69 6732.35 6787.85 7790.5C6802.86 7683.5 6820.87 7573.52 6841.89 7466.52C6886.92 7169.28 6940.96 6875.02 7004 6583.73C7123.33 5997.65 7280.77 5419.82 7475.34 4853.83C7523.37 4711.16 7577.41 4571.46 7628.45 4431.76C7685.49 4295.03 7739.53 4155.33 7802.57 4018.6C7865.62 3881.88 7928.66 3748.12 7994.71 3614.37C8060.76 3480.61 8132.81 3349.83 8210.87 3222.02C8361.15 2963.4 8531.8 2716.92 8721.23 2484.88C8745.25 2455.15 8769.26 2428.4 8793.28 2398.68C8811.29 2374.9 8832.31 2354.09 8850.32 2333.29C8862.33 2321.4 8871.34 2309.51 8883.35 2297.62C8895.36 2285.73 8904.36 2273.84 8916.37 2261.95C8919.37 2256.01 8925.38 2253.03 8931.38 2247.09C8937.39 2241.15 8943.39 2232.23 8949.39 2226.28L8952.4 2223.31L8979.42 2196.56C8985.42 2190.62 8988.42 2184.67 8994.43 2181.7L9027.45 2149L9033.45 2143.06L9054.47 2122.25C9057.47 2119.28 9057.47 2116.31 9060.47 2116.31L9120.52 2056.86C9127.75 2049.1 9135.8 2042.12 9144.53 2036.05C9162.55 2018.22 9180.56 2003.36 9198.57 1985.52C9216.58 1967.69 9243.6 1946.88 9264.62 1926.08C9291.64 1902.3 9321.66 1878.52 9348.68 1854.74C9414.73 1851.77 9480.77 1848.8 9546.82 1848.8C9845.36 1842.12 10144 1852.04 10441.5 1878.52C10778.7 2022.65 11106.6 2187.44 11423.2 2371.93L11681.3 2520.55C11765.4 2568.1 11849.5 2624.58 11933.5 2675.11C12017.6 2725.64 12104.6 2779.14 12185.7 2832.64L12431.9 2999.09C13084.5 3444.16 13707.2 3930.66 14296.2 4455.54L14728.5 4859.78C14800.6 4925.17 14875.6 4990.56 14944.7 5061.9L15151.8 5272.93C15286.9 5415.6 15428 5555.3 15563.1 5697.98L15956.4 6137.88L16154.5 6357.83L16340.7 6586.71L16715.9 7044.45C16746 7083.09 16779 7121.73 16809 7160.37L16887.1 7261.43Z" fill="#C7DBDE"/>
<path d="M17682.6 6684.79C17682.6 6684.79 16872.1 6663.99 16914.1 7267.37L16827 7148.48C16800 7109.84 16767 7071.2 16737 7032.56L16367.7 6568.87L16181.6 6337.03L15986.4 6114.1L15593.1 5671.22C15458 5528.55 15319.9 5388.85 15181.8 5246.18L14974.7 5035.14C14905.6 4963.81 14833.6 4898.42 14761.5 4830.05L14329.2 4425.81C13739.1 3899.52 13113.2 3413.89 12455.9 2972.34C11819.4 2550.27 11156 2163.86 10444.5 1875.55C15082.8 2294.65 17682.6 6684.79 17682.6 6684.79Z" fill="#C7DBDE"/>
<path d="M81.0579 6426.2L0 6506.45L81.0579 6429.17C132.094 6414.31 183.131 6402.42 234.167 6387.56C183.131 6399.45 132.094 6414.31 81.0579 6426.2Z" fill="black"/>
<path d="M18196 7225.76L18078.9 7056.33L18045.9 7050.39C17941 6999.36 17828.5 6965.25 17712.7 6949.33C17598.6 6934.47 17475.5 6949.33 17385.4 7017.69C17295.4 7086.06 17247.3 7196.03 17226.3 7308.98C17207.3 7423.92 17203.2 7540.79 17214.3 7656.75L17217.3 7683.5H17211.3L17175.3 7632.97C17164.3 7522.96 17168.3 7411.98 17187.3 7303.04C17199 7243.45 17218.2 7185.54 17244.3 7130.64C17271.5 7074.38 17311.8 7025.34 17361.9 6987.6C17412 6949.86 17470.5 6924.51 17532.5 6913.66C17594.2 6905.27 17656.7 6904.27 17718.7 6910.69C17820.3 6922.32 17919.5 6949.39 18012.9 6990.94C17822.3 6608.94 17603.5 6241.35 17358.4 5891.18C17103.4 5524.71 16825.7 5174.29 16526.8 4841.94C15929.8 4175.22 15242.9 3593.11 14485.4 3112.04C13727.5 2629.83 12899.2 2265.92 12029.6 2033.08C11159.6 1802.29 10261.2 1693.24 9360.69 1709.1C8910.85 1711.57 8461.62 1742.35 8015.73 1801.24C7793.57 1827.99 7571.41 1866.63 7349.25 1905.27C7130.1 1949.85 6910.94 1994.44 6691.78 2050.91C5819.49 2272.26 4976.21 2593.46 4178.99 3008.01C3382.35 3424.66 2632.62 3923.84 1942.39 4497.15C1597.45 4784.22 1267.78 5088.8 954.683 5409.66C661.781 5705.55 388.99 6020.31 138.1 6351.89C387.658 6020.03 658.404 5704.32 948.679 5406.68C1260.72 5084.88 1589.39 4779.31 1933.38 4491.2C2621.09 3913.47 3369.99 3411.18 4166.98 2993.15C4965.51 2575.4 5810.92 2252.17 6685.78 2030.11C6904.93 1973.63 7124.09 1929.05 7346.25 1884.46C7568.41 1839.88 7787.56 1804.21 8012.73 1777.46C8459.72 1719.06 8909.85 1687.3 9360.69 1682.34C9408.72 1682.34 9459.76 1682.34 9507.79 1679.37C9489.78 1542.64 9480.77 1405.92 9474.77 1266.22C9468.77 1126.52 9465.76 986.817 9465.76 844.144C9465.76 701.472 9468.77 564.744 9474.77 422.072C9480.77 279.4 9489.78 142.672 9507.79 0C9525.81 139.7 9534.81 279.4 9540.82 422.072C9546.82 564.744 9549.82 701.472 9549.82 844.144C9549.82 986.817 9546.82 1123.54 9540.82 1266.22C9537.39 1404.43 9526.37 1542.35 9507.79 1679.37C10362.3 1673.89 11213.6 1782.87 12038.6 2003.36C12911.4 2237.96 13743.3 2601.72 14506.4 3082.32C15267.8 3565.29 15958.7 4149.34 16559.8 4818.16C16860.4 5150.91 17139.2 5502.36 17394.4 5870.37C17646.6 6238.94 17883.8 6619.4 18075.9 7026.61L18087.9 7050.39L18196 7225.76Z" fill="black"/>
<path d="M17211.3 7683.5L17202.3 7680.53L17166.3 7630C17169.3 7630 17172.3 7632.97 17175.3 7632.97V7630L17211.3 7683.5Z" fill="black"/>
<path d="M17202.3 7680.53L17190.3 7677.55C16840.7 7604.61 16486.7 7553.97 16130.5 7525.96C15774 7495.75 15415.6 7493.77 15058.8 7520.02C14704.5 7549.74 14350.3 7612.16 14017 7739.97C13851 7803.55 13693.7 7887.43 13548.7 7989.65C13404.4 8091.89 13278.5 8217.5 13176.4 8361.19L13170.4 8370.11L13158.4 8367.14C13152.4 8364.16 13146.4 8364.16 13140.4 8361.19L13224.4 8664.37L13131.4 8358.22C12619 8205.52 12098.9 8079.52 11573.3 7980.73C11038.7 7876.24 10498.4 7802.8 9955.11 7760.78C9411.74 7715.2 8865.49 7714.21 8321.95 7757.81C7787.56 7802.39 7253.18 7900.48 6748.82 8084.76C6736.81 8173.93 6727.81 8263.1 6721.8 8352.27C6727.81 8263.1 6736.81 8173.93 6742.82 8087.74L6730.81 8090.71L6724.8 8093.68L6718.8 8090.71C6347.38 7882.04 5958.7 7705.04 5556.97 7561.63C5156.33 7415.25 4744.8 7299.98 4326.09 7216.84C3906.97 7133.83 3480.6 7092.01 3053.18 7092C2625.67 7094.38 2200.12 7149.29 1786.28 7255.48L1780.27 7258.45V7243.59L1642.17 7481.38L1780.27 7234.67C1786.14 7050.97 1741.52 6869.13 1651.18 6708.57C1552.58 6544.44 1396.64 6421.78 1212.87 6363.78C1029.25 6308.52 836.093 6291.32 645.461 6313.25C524.297 6324.58 403.974 6343.44 285.203 6369.72C403.668 6341.26 524.074 6321.39 645.461 6310.28C835.887 6287.35 1029.04 6303.54 1212.87 6357.83C1398.48 6413.83 1556.02 6536.92 1654.18 6702.63C1745.43 6861.87 1791.09 7042.73 1786.28 7225.76C1834.31 7139.56 1879.34 7053.36 1933.38 6973.11C1981.41 6898.8 2026.45 6821.52 2074.48 6744.24C2131.52 6652.1 2188.56 6562.93 2248.61 6476.73L2413.72 6233L2587.85 5998.18L2674.91 5879.29C2704.93 5840.65 2734.95 5802.01 2767.98 5763.37L2951.11 5534.5C3014.15 5460.19 3080.2 5385.88 3143.24 5311.57C3206.29 5237.26 3272.34 5162.95 3341.39 5094.59L3542.53 4880.58L3857.76 4568.49L3965.83 4470.4C4037.88 4405.01 4109.94 4336.64 4184.99 4274.22L4410.15 4083.99C4485.2 4018.6 4563.26 3962.13 4638.31 3899.71C5257.88 3414.6 5925.81 2993.32 6631.74 2642.41C7247.18 2342.2 7886.63 2086.58 8550.11 1914.19C8559.11 1914.19 8568.12 1911.22 8577.13 1911.22C8288.92 1991.47 8006.72 2089.56 7724.52 2196.56C7357.71 2336.55 6998.92 2496.3 6649.75 2675.11C5244.95 3387 3996.94 4368.02 2978.13 5561.25L2791.99 5787.15C2761.97 5825.79 2728.95 5861.45 2698.93 5900.09L2608.86 6016.02L2431.74 6250.83L2263.62 6491.59C2197.57 6583.73 2137.53 6675.87 2074.48 6770.99C2029.45 6839.35 1984.42 6910.69 1939.38 6979.05C1885.35 7059.31 1837.31 7145.5 1789.28 7228.73L1786.28 7234.67V7243.59C2198.65 7134.79 2623.42 7078.85 3050.18 7077.14C3478.46 7073.67 3905.98 7113.51 4326.09 7196.03C4745.68 7279.56 5158.19 7394.83 5559.97 7540.83C5960.88 7685.04 6349.41 7860.98 6721.8 8066.93C6730.81 8063.96 6736.81 8060.99 6745.82 8058.01C6754.83 7965.87 6763.83 7870.76 6775.84 7778.61C6823.87 7374.38 6886.92 6973.11 6964.98 6574.81C7080.85 5986.58 7236.31 5406.67 7430.31 4838.97C7478.34 4696.3 7532.38 4556.6 7586.42 4416.9C7640.46 4277.2 7700.5 4137.5 7763.55 4003.74C7884.6 3728.36 8024.01 3461.26 8180.84 3204.18C8335.3 2946.3 8509.96 2700.83 8703.22 2470.01C8897.13 2242.35 9113.34 2034.26 9348.68 1848.8C9318.66 1872.57 9291.64 1896.35 9264.62 1920.13C9237.6 1943.91 9219.59 1958.77 9198.57 1979.58C9177.56 2000.39 9162.55 2012.27 9144.53 2030.11C9135.53 2036.05 9129.52 2044.97 9120.51 2050.91C9099.5 2068.75 9081.49 2089.56 9060.47 2110.36C9057.47 2110.36 9057.47 2113.33 9054.47 2116.31C9046.73 2122.48 9039.69 2129.45 9033.45 2137.11L9027.45 2143.06L8994.43 2175.75L8979.41 2190.61L8952.4 2217.37L8949.39 2220.34C8943.39 2226.28 8937.38 2235.2 8931.38 2241.14L8916.37 2256.01C8904.56 2267.14 8893.53 2279.06 8883.35 2291.67C8871.54 2302.81 8860.5 2314.73 8850.32 2327.34C8829.31 2348.15 8811.29 2371.93 8793.28 2392.73C8769.26 2419.49 8745.25 2449.21 8721.23 2478.93C8531.8 2710.98 8361.15 2957.46 8210.87 3216.07C8132.81 3343.88 8063.76 3477.64 7994.71 3608.42C7925.66 3739.2 7862.62 3875.93 7802.57 4012.66C7742.53 4149.39 7685.49 4289.09 7628.45 4425.81C7577.41 4565.51 7523.37 4705.21 7475.34 4847.89C7280.77 5413.87 7123.33 5991.71 7004 6577.79C6940.96 6869.08 6886.92 7163.34 6841.89 7460.57C6820.87 7567.58 6802.86 7677.55 6787.85 7784.56L6751.82 8052.07C7256.18 7870.76 7784.56 7772.67 8315.94 7728.08C8860.4 7683.5 9407.65 7683.5 9952.11 7728.08C11026.9 7814.6 12089.5 8012.86 13122.4 8319.58L13020.3 7977.76L12945.2 7731.06C12846.2 7421.93 12741.1 7115.78 12639 6809.63L12467.9 6354.86L12383.8 6128.96L12341.8 6016.02C12326.8 5977.38 12311.8 5941.71 12293.8 5903.07C12164.7 5605.83 12047.6 5302.65 11903.5 5014.34L11801.4 4794.38C11768.4 4720.08 11732.4 4648.74 11696.4 4577.4L11471.2 4146.41C11393.1 4003.74 11309.1 3867.01 11228 3724.34L11168 3620.31L11101.9 3519.25L10972.8 3314.16L10906.8 3213.1L10837.7 3115.01L10696.6 2915.87C10651 2849 10601.9 2784.52 10549.5 2722.66C10498.5 2660.24 10450.5 2594.85 10399.4 2532.43L10240.3 2348.15C10186.3 2288.7 10129.2 2229.26 10075.2 2169.81C9964.46 2049.16 9842.87 1938.73 9711.94 1839.88C9843.89 1935.36 9967.42 2041.76 10081.2 2157.92C10138.2 2217.37 10195.3 2273.84 10252.3 2333.29L10414.4 2514.6C10468.5 2574.05 10516.5 2639.44 10567.5 2704.83C10618.6 2770.22 10669.6 2829.67 10717.7 2898.03L10861.8 3094.21L10933.8 3192.29L10999.9 3293.35C11359 3835.56 11674.2 4405.05 11942.5 4996.5C12086.6 5287.79 12203.7 5590.97 12329.8 5888.21C12344.8 5926.85 12362.8 5962.51 12374.8 6001.15L12416.9 6114.1L12500.9 6342.97L12669.1 6800.71C12768.1 7109.84 12870.2 7415.99 12966.3 7725.11L13038.3 7983.7L13131.4 8322.55C13137.9 8325.89 13145.1 8327.91 13152.4 8328.5C13254.5 8184.81 13380.4 8059.2 13524.7 7956.95C13672.7 7853.7 13833 7768.85 14002 7704.3C14338.2 7573.52 14698.5 7511.1 15055.8 7481.38C15414.5 7454.13 15774.9 7455.12 16133.5 7484.35C16480.2 7512.51 16825 7560.15 17166.3 7627.02L17202.3 7680.53Z" fill="black"/>
<path d="M17175.3 7632.97C17172.3 7632.97 17169.3 7630 17166.3 7630L17076.2 7511.1L16899.1 7273.31L16890.1 7258.45L16815 7154.42C16785 7115.78 16752 7077.14 16721.9 7038.5L16346.7 6580.76L16160.5 6351.89L15962.4 6131.94L15569.1 5692.03C15434 5549.36 15292.9 5409.66 15157.8 5266.99L14950.7 5055.95C14881.6 4984.61 14806.6 4919.22 14734.5 4853.83L14302.2 4449.59C13713.2 3924.71 13090.5 3438.21 12437.9 2993.15L12191.7 2826.7C12110.7 2773.19 12023.6 2722.66 11939.5 2669.16C11855.5 2615.66 11771.4 2562.16 11687.4 2514.6L11429.2 2365.98C11112.3 2182.08 10784.4 2017.31 10447.5 1872.57H10450.5C11159 2160.89 11822.4 2547.3 12461.9 2969.37C13119.2 3410.91 13745.1 3896.54 14335.2 4422.84L14767.6 4827.08C14839.6 4895.44 14911.7 4960.83 14980.7 5032.17L15187.9 5243.21C15326 5385.88 15464 5525.58 15599.1 5668.25L15992.4 6111.13L16187.6 6334.06L16373.7 6565.9L16743 7029.58C16773 7068.22 16806 7106.86 16833 7145.5L16920.1 7264.4L17091.2 7505.16L17175.3 7632.97Z" fill="black"/>
<path d="M17430.5 7986.68L17202.3 7680.53L17166.3 7630C17169.3 7630 17172.3 7632.97 17175.3 7632.97V7630L17211.3 7680.53L17430.5 7986.68Z" fill="black"/>
<path d="M8850.32 1842.85C8760.26 1863.66 8667.19 1887.44 8577.13 1911.22C8568.12 1911.22 8559.11 1914.19 8550.11 1914.19C8649.18 1890.41 8748.25 1866.63 8850.32 1842.85Z" fill="black"/>
<path d="M9168.55 7787.53C9159.54 8183.84 9144.53 8579.16 9123.52 8973.49C9102.5 9368.81 9078.49 9761.16 9054.47 10156.5C9030.45 10551.8 9000.43 10944.2 8964.41 11339.5C8928.38 11734.8 8895.36 12127.1 8850.32 12519.5C8859.33 12124.2 8874.34 11728.8 8895.36 11333.5C8916.37 10938.2 8940.39 10545.9 8964.41 10150.5C8988.42 9755.22 9021.45 9362.87 9054.47 8967.55C9087.49 8572.23 9126.52 8182.85 9168.55 7787.53Z" fill="black"/>
<path d="M9132.53 14829C9052.26 14828.9 8974.22 14802.8 8910.37 14754.7C8846.98 14706 8796.49 14642.7 8763.26 14570.4C8691.21 14427.7 8658.19 14273.2 8634.17 14115.6C8589.14 13803.5 8592.14 13485.5 8607.15 13170.4C8613.15 13093.2 8619.16 13012.9 8625.16 12935.6L8637.17 12816.7L8643.18 12757.3C8644.97 12736.8 8650.03 12716.7 8658.19 12697.8C8673.27 12659.3 8702.11 12627.6 8739.24 12608.7C8776.13 12589.6 8818.41 12583.3 8859.33 12590.8C8900.31 12599.7 8937.21 12621.6 8964.41 12653.2C8991.35 12684.9 9006.22 12724.8 9006.43 12766.2C8973.45 13079.1 8961.42 13393.9 8970.41 13708.4C8974.71 13864.8 8989.75 14020.7 9015.44 14175.1C9027.47 14252.3 9050.73 14327.4 9084.49 14398C9087.68 14406.9 9092.8 14415 9099.5 14421.8C9105.51 14430.7 9108.51 14436.7 9114.51 14445.6C9120.52 14454.5 9126.52 14460.4 9132.53 14463.4L9135.53 14466.4H9153.54C9171.32 14465 9188.52 14459.5 9203.67 14450.2C9218.83 14440.8 9231.49 14428.1 9240.6 14412.9C9262.2 14381.4 9277.49 14346.1 9285.63 14308.8C9296.8 14271.9 9304.84 14234.1 9309.65 14195.9C9320.63 14119.1 9325.65 14041.6 9324.66 13964C9324.15 13885.6 9319.14 13807.2 9309.65 13729.2C9306.65 13708.4 9303.65 13690.6 9300.64 13672.8C9296.58 13652.2 9295.57 13631.2 9297.64 13610.3C9301.58 13567.4 9320.54 13527.1 9351.25 13496.4C9381.95 13465.8 9422.49 13446.7 9465.87 13442.5C9509.26 13438.3 9552.77 13449.2 9588.92 13473.3C9625.06 13497.4 9651.58 13533.3 9663.9 13574.7C9669.06 13594.2 9673.07 13614.1 9675.91 13634.1L9681.92 13693.6C9690.92 13770.8 9693.93 13851.1 9696.93 13931.4C9697.42 14010.8 9693.41 14090.2 9684.92 14169.1C9676 14247.5 9660.94 14325 9639.89 14401C9618.01 14476.9 9584.61 14549 9540.82 14615C9496.41 14681.8 9435.73 14736.4 9364.36 14773.8C9293 14811.2 9213.26 14830.2 9132.53 14829ZM9132.53 14826C9212.19 14826.7 9290.73 14807.3 9360.69 14769.6C9429.88 14731.7 9488.63 14677.6 9531.81 14612C9574.92 14546.5 9606.39 14474.1 9624.88 14398C9645.64 14322.2 9658.72 14244.5 9663.9 14166.2C9670.4 14088.1 9672.41 14009.7 9669.91 13931.4C9666.91 13854.1 9660.9 13773.8 9651.9 13696.5L9642.89 13637.1C9640.64 13617.9 9636.62 13599 9630.88 13580.6C9621.73 13545.7 9599.08 13515.8 9567.84 13497.4C9537.61 13477.2 9501.18 13468.3 9464.94 13472.1C9428.7 13475.9 9394.97 13492.2 9369.69 13518.2C9343.06 13543.1 9326.97 13577.1 9324.66 13613.3C9322.66 13631.2 9323.68 13649.3 9327.66 13666.8C9330.67 13687.6 9333.67 13705.5 9336.67 13726.3C9346.25 13805.2 9351.26 13884.6 9351.68 13964C9352.67 14043.6 9347.65 14123.1 9336.67 14201.8C9330.53 14241.1 9321.5 14279.8 9309.65 14317.8C9298.85 14356.9 9281.61 14394.1 9258.61 14427.7C9246.75 14445.4 9231.44 14460.6 9213.58 14472.3C9194.31 14483.6 9172.81 14490.7 9150.54 14493.1H9135.53C9131.29 14493.6 9127.04 14492.5 9123.52 14490.2C9120.52 14490.2 9117.51 14487.2 9114.51 14484.2C9105.77 14477 9097.73 14469.1 9090.49 14460.4L9072.48 14433.7C9066.48 14424.8 9063.48 14415.8 9057.47 14406.9C9024.09 14334.3 9001.83 14257.2 8991.42 14178.1C8966.5 14021.7 8953.46 13863.7 8952.4 13705.5C8948.35 13390.8 8962.38 13076.3 8994.43 12763.2C8993.86 12725.2 8980.13 12688.5 8955.55 12659.3C8930.96 12630.1 8897 12610.1 8859.33 12602.7C8821.33 12596.4 8782.3 12602.7 8748.25 12620.6C8714.46 12639.1 8688.01 12668.4 8673.2 12703.8C8667.46 12722.2 8663.44 12741.1 8661.19 12760.3L8655.18 12819.7L8646.18 12935.6C8640.17 13012.9 8637.17 13093.2 8631.17 13170.4C8622.16 13328 8619.16 13485.5 8622.16 13640.1C8623.09 13797 8633.12 13953.8 8652.18 14109.7C8673.2 14264.3 8703.22 14421.8 8769.27 14561.5C8801.38 14633.6 8850.85 14696.9 8913.37 14745.8C8974.37 14797.6 9052.13 14826.1 9132.53 14826Z" fill="black"/>
<path d="M9189.57 14760.6C9169.43 14760.1 9149.36 14758.1 9129.52 14754.7C8835.31 14707.1 8685.21 14338.6 8685.21 13657.9C8687.8 13340.5 8712.88 13023.7 8760.26 12709.7C8760.87 12697.3 8764.12 12685.1 8769.79 12673.9C8775.47 12662.8 8783.44 12652.9 8793.2 12645C8802.96 12637.1 8814.29 12631.3 8826.45 12628C8838.61 12624.7 8851.34 12624 8863.8 12625.9C8876.26 12627.8 8888.19 12632.2 8898.8 12639C8909.42 12645.7 8918.49 12654.6 8925.43 12665C8932.36 12675.4 8937.01 12687.2 8939.07 12699.5C8941.13 12711.8 8940.56 12724.4 8937.39 12736.5C8829.31 13417.1 8796.28 14516.9 9159.54 14576.4C9180.26 14581.1 9201.86 14580.6 9222.33 14574.9C9242.8 14569.2 9261.48 14558.4 9276.63 14543.7C9417.73 14412.9 9429.74 13958.1 9402.72 13699.5C9400.33 13675.9 9407.53 13652.2 9422.73 13633.8C9437.93 13615.5 9459.89 13603.8 9483.78 13601.4C9507.66 13599.1 9531.52 13606.2 9550.1 13621.2C9568.68 13636.3 9580.46 13658 9582.85 13681.7C9591.85 13759 9651.9 14439.6 9399.72 14671.5C9373.4 14700.6 9340.95 14723.7 9304.64 14739.1C9268.33 14754.5 9229.05 14761.9 9189.57 14760.6Z" fill="#C7DBDE"/>
</g>
<defs>
<clipPath id="clip0_96_465">
<rect width="18196" height="14829" fill="white"/>
</clipPath>
</defs>
</svg>
