<svg width="118" height="301" viewBox="0 0 118 301" fill="none" xmlns="http://www.w3.org/2000/svg">
<path d="M86.4004 0C106.933 0.000155229 117.2 12.5334 117.2 37.5996C117.2 38.3887 117.169 39.2887 117.111 40.2998L92.8818 182.595L92.8018 182.639C91.9343 187.543 91.1343 192.13 90.4004 196.4C87.7338 213.467 86.4004 225.6 86.4004 232.8C86.4004 245.066 87.1998 254.934 88.7998 262.4C90.6665 269.867 93.8671 276.667 98.4004 282.8C84.0004 294.8 67.4665 300.8 48.7998 300.8C31.7332 300.8 19.3329 296.533 11.5996 288C3.86639 279.467 0 265.733 0 246.8C1.91015e-05 234.8 1.73356 216.933 5.2002 193.2C8.66686 169.467 15.3335 129.067 25.2002 72L4 29.2002C34.1333 9.73354 61.6004 0 86.4004 0Z" fill="black"/>
</svg>
