<svg width="166" height="170" viewBox="0 0 166 170" fill="none" xmlns="http://www.w3.org/2000/svg">
<path d="M124.949 0C137.216 3.58244e-05 147.082 3.59997 154.549 10.7998C162.015 17.7331 165.749 26.9337 165.749 38.4004C165.749 54.1335 158.816 69.1998 144.949 83.5996C136.484 92.2272 124.788 101.249 109.863 110.671L26.5928 155.815L26.4893 155.623L9.7002 164.345L0 169.148L10.8799 116.293C27.6512 102.855 40.3418 92.2253 48.9492 84.4004C58.0158 76.1338 65.2155 67.7335 70.5488 59.2002C76.1488 50.667 78.9491 41.7336 78.9492 32.4004C78.9492 26.0005 77.6158 19.6001 74.9492 13.2002C84.0159 8.66687 92.6826 5.33351 100.949 3.2002C109.216 1.06688 117.216 0 124.949 0Z" fill="black"/>
</svg>
