<svg width="269" height="308" viewBox="0 0 269 308" fill="none" xmlns="http://www.w3.org/2000/svg">
<path d="M49.7759 24.0945C50.4321 23.9639 51.0882 23.866 51.7444 23.7354C53.0568 23.5068 54.4003 23.311 55.7752 23.0824C56.5563 22.9845 57.3063 22.8539 58.0874 22.7559C59.4623 22.5601 60.8683 22.3642 62.3057 22.1683C63.1493 22.0703 64.0242 21.9724 64.8991 21.8418H65.1179C59.8685 25.4004 53.213 31.6688 48.8072 42.1814C34.2152 39.439 24.6226 36.011 20.4043 33.2359C20.8105 32.9747 21.1855 32.7135 21.6542 32.4524C21.7479 32.4197 21.8104 32.3871 21.9041 32.3218C24.7475 30.7873 29.0595 29.1223 34.8401 27.4899C34.9964 27.4246 35.1838 27.3919 35.3713 27.3266C36.6212 27.0002 37.9335 26.641 39.3084 26.3146C39.6833 26.2166 40.0895 26.1187 40.4645 26.0207C41.6831 25.7595 42.9642 25.4657 44.2765 25.1719C44.8077 25.0739 45.3701 24.9434 45.9013 24.8454C47.1512 24.5842 48.4323 24.323 49.7759 24.0945Z" fill="#C7DBDE"/>
<path d="M91.927 35.7813C95.2079 37.6096 98.395 42.2456 100.801 46.7837C88.8648 46.6531 78.1473 46.0001 68.7109 45.0207C70.8044 41.8539 73.4291 39.3073 76.5225 37.479C82.6781 33.8551 88.8336 34.051 91.927 35.7813Z" fill="#C7DBDE"/>
<path d="M143.868 21.5011C143.505 21.4619 143.165 21.426 142.796 21.3835C141.796 21.2856 140.796 21.1876 139.734 21.0897C138.265 20.9591 136.766 20.8285 135.266 20.6979C134.172 20.6326 133.11 20.5347 132.016 20.4694C130.423 20.3388 128.766 20.2735 127.11 20.1756C126.017 20.1103 124.923 20.045 123.798 19.9797C121.955 19.9144 120.049 19.8491 118.143 19.7838C117.112 19.7511 116.143 19.7185 115.112 19.6858C112.206 19.6205 109.206 19.5879 106.113 19.5879H105.988C104.801 19.5879 103.707 19.6205 102.551 19.6205C112.925 26.5745 119.174 40.6784 121.424 46.555C123.567 46.4734 125.648 46.3657 127.704 46.2514C134.816 39.7414 139.45 30.9657 143.868 21.5011Z" fill="#C7DBDE"/>
<path d="M190.228 32.4194C190.166 32.3868 190.134 32.3541 190.103 32.3215C187.26 30.787 182.948 29.122 177.167 27.4896C176.948 27.4243 176.73 27.359 176.542 27.3263C175.324 26.9672 174.042 26.6407 172.699 26.3143C172.293 26.2163 171.855 26.1184 171.418 26.0204C170.23 25.7266 169.012 25.4654 167.731 25.1716C167.168 25.0736 166.575 24.943 165.981 24.8124C164.762 24.5839 163.544 24.3554 162.263 24.0942C161.575 23.9636 160.825 23.8657 160.107 23.7351C158.888 23.5065 157.607 23.3107 156.295 23.1148C155.482 22.9842 154.638 22.8536 153.795 22.723C152.482 22.5597 151.17 22.3639 149.795 22.2006C148.889 22.07 147.952 21.9394 146.983 21.8415C145.983 21.7207 144.924 21.613 143.868 21.502C139.45 30.9666 134.816 39.7423 127.704 46.2523C162.784 44.2869 184.576 37.8324 191.572 33.2356C191.165 32.9744 190.728 32.7132 190.228 32.4194Z" fill="#C7DBDE"/>
<path d="M249.909 79.6612C252.19 94.2221 241.91 110.154 223.224 139.08C219.818 144.337 216.038 150.213 211.976 156.612V143.749L214.569 139.733C233.348 110.677 244.722 93.0795 244.847 74.209C246.69 74.3069 247.628 74.7313 247.94 74.9599C249.159 75.7761 249.69 78.2573 249.909 79.6612Z" fill="#C7DBDE"/>
<path d="M224.38 51.1263C226.224 51.2895 232.473 52.0404 238.098 55.142C236.223 55.4358 234.317 55.8276 232.286 56.3499C232.223 56.3826 232.161 56.3826 232.098 56.4152C225.474 58.1782 218.6 61.0839 211.976 64.1854V53.5749C215.475 52.1384 220.162 50.7672 224.38 51.1263Z" fill="#C7DBDE"/>
<path d="M64.7424 163.795H41.3701V188.216H64.7424V163.795Z" fill="#F5D6A7"/>
<path d="M18.748 189.847V53.9668C26.1222 57.1663 34.9962 59.5496 44.3388 61.3126C44.2763 62.1614 44.1826 62.9776 44.1201 63.8918C42.9327 88.345 43.3702 124.551 43.7451 144.206H39.8081C30.3092 144.206 22.6226 152.27 22.6226 162.162V189.847H18.748Z" fill="#C7DBDE"/>
<path d="M118.361 66.2258C112.984 66.3988 108.669 66.438 105.988 66.438C99.145 66.438 81.7095 66.2094 62.9304 64.0547C62.8992 64.3485 62.8679 64.6097 62.8679 64.8709C61.6806 88.9324 62.118 124.91 62.493 144.205H66.305C75.7727 144.205 83.4905 152.269 83.4905 162.162V189.847C83.4905 199.772 75.7727 207.803 66.305 207.803H39.8081C30.3092 207.803 22.6226 199.772 22.6226 189.847H18.748V215.28C18.748 255.6 50.1194 288.411 88.7087 288.411H123.236C124.136 288.411 125.026 288.375 125.917 288.339C131.719 215.035 119.552 139.448 118.361 66.2258Z" fill="#C7DBDE"/>
<path d="M118.361 66.2261C119.552 139.449 131.719 215.038 125.917 288.339C163.265 286.86 193.228 254.66 193.228 215.28V53.9668C172.071 63.1213 138.047 65.5895 118.361 66.2261Z" fill="#C7DBDE"/>
<path d="M269 81.2605C269 80.3137 269 71.7927 264.907 59.2232C258.939 40.7772 240.816 32.8764 225.88 31.6031C220.943 31.1787 216.162 31.897 211.975 33.007C211.632 5.84397 145.796 0.979434 116.58 0.163237C116.268 0.163237 115.924 0.130594 115.612 0.130594H115.518C114.549 0.0979466 113.581 0.0979451 112.706 0.0652972H112.018C109.581 1.49757e-06 107.519 0 105.988 0C97.1137 0 70.6168 0.391771 46.3384 4.76659C22.0599 9.10875 0 17.434 0 33.2355V215.28C0 266.407 39.8079 308 88.7084 308H123.236C172.168 308 211.975 266.407 211.975 215.28V192.786C222.037 175.939 230.911 162.195 238.754 150.017C258.408 119.654 269.906 101.796 268.938 81.8482C268.938 81.6523 269 81.4564 269 81.2605ZM105.988 19.5887H106.113C109.206 19.5887 112.206 19.6214 115.112 19.6867C116.143 19.7193 117.111 19.752 118.143 19.7846C120.049 19.8499 121.955 19.9152 123.798 19.9805C124.923 20.0458 126.017 20.1111 127.11 20.1764C128.766 20.2743 130.422 20.3396 132.016 20.4702C133.11 20.5355 134.172 20.6335 135.266 20.6987C136.765 20.8293 138.265 20.9599 139.734 21.0905C140.796 21.1885 141.796 21.2864 142.796 21.3843C143.165 21.4268 143.505 21.4627 143.868 21.5019C144.924 21.6129 145.983 21.7206 146.983 21.8414C147.952 21.9394 148.889 22.07 149.795 22.2005C151.17 22.3638 152.482 22.5597 153.795 22.7229C154.638 22.8535 155.482 22.9841 156.294 23.1147C157.607 23.3106 158.888 23.5065 160.106 23.735C160.825 23.8656 161.575 23.9635 162.262 24.0941C163.544 24.3553 164.762 24.5838 165.981 24.8124C166.574 24.943 167.168 25.0736 167.731 25.1715C169.012 25.4653 170.23 25.7265 171.418 26.0204C171.855 26.1183 172.292 26.2162 172.699 26.3142C174.042 26.6407 175.323 26.9671 176.542 27.3263C176.729 27.3589 176.948 27.4242 177.167 27.4895C182.948 29.1219 187.26 30.7869 190.103 32.3214C190.134 32.354 190.165 32.3867 190.228 32.4193C190.728 32.7132 191.165 32.9743 191.572 33.2355C184.575 37.8324 162.781 44.2868 127.704 46.2522C125.651 46.3665 123.57 46.4742 121.423 46.5559C119.174 40.6793 112.924 26.5754 102.551 19.6214C103.707 19.6214 104.8 19.5887 105.988 19.5887ZM76.5224 37.4798C82.6779 33.8558 88.8334 34.0517 91.9268 35.7821C95.2077 37.6103 98.3948 42.2463 100.801 46.7844C88.8647 46.6538 78.1472 46.0008 68.7108 45.0214C70.8043 41.8546 73.429 39.308 76.5224 37.4798ZM21.6537 32.452C21.7475 32.4193 21.81 32.3867 21.9037 32.3214C24.7471 30.7869 29.0591 29.1219 34.8397 27.4895C34.9959 27.4242 35.1834 27.3916 35.3709 27.3263C36.6207 26.9998 37.9331 26.6407 39.3079 26.3142C39.6829 26.2162 40.0891 26.1183 40.4641 26.0204C41.6827 25.7592 42.9638 25.4653 44.2761 25.1715C44.8073 25.0736 45.3697 24.943 45.9009 24.845C47.1508 24.5838 48.4319 24.3227 49.7755 24.0941C50.4316 23.9635 51.0878 23.8656 51.744 23.735C53.0563 23.5065 54.3999 23.3106 55.7748 23.082C56.5559 22.9841 57.3058 22.8535 58.087 22.7556C59.4618 22.5597 60.8679 22.3638 62.3053 22.1679C63.1489 22.07 64.0238 21.972 64.8987 21.8414H65.1174C59.868 25.4 53.2126 31.6684 48.8068 42.181C34.2148 39.4386 24.6221 36.0106 20.4039 33.2355C20.8101 32.9743 21.185 32.7132 21.6537 32.452ZM64.7425 163.794V188.215H41.3702V163.794H64.7425ZM193.228 215.28C193.228 254.66 163.269 286.86 125.917 288.339C125.026 288.375 124.136 288.411 123.236 288.411H88.7084C50.1192 288.411 18.7478 255.6 18.7478 215.28V53.9669C26.122 57.1664 34.9959 59.5497 44.3386 61.3127C44.2761 62.1615 44.1824 62.9777 44.1199 63.8919C42.9325 88.3451 43.37 124.552 43.7449 144.206H39.8079C30.309 144.206 22.6224 152.27 22.6224 162.162V189.847C22.6224 199.772 30.309 207.804 39.8079 207.804H66.3048C75.7724 207.804 83.4903 199.772 83.4903 189.847V162.162C83.4903 152.27 75.7724 144.206 66.3048 144.206H62.4927C62.1178 124.911 61.6803 88.9328 62.8677 64.8713C62.8677 64.6101 62.8989 64.349 62.9302 64.0551C81.7093 66.2099 99.1447 66.4384 105.988 66.4384C108.669 66.4384 112.984 66.3992 118.361 66.2262C138.046 65.5896 172.071 63.1214 193.228 53.9669V215.28ZM211.975 53.5752C215.475 52.1387 220.162 50.7674 224.38 51.1266C226.224 51.2898 232.473 52.0407 238.097 55.1422C236.223 55.4361 234.317 55.8279 232.286 56.3502C232.223 56.3829 232.161 56.3829 232.098 56.4155C225.474 58.1785 218.6 61.0842 211.975 64.1857V53.5752ZM211.975 85.7659C216.319 83.6112 220.881 81.4238 225.38 79.4976C223.755 87.5616 219.131 96.703 211.975 108.391V85.7659ZM223.224 139.08C219.818 144.336 216.037 150.213 211.975 156.612V143.749L214.569 139.733C233.348 110.676 244.722 93.0791 244.847 74.2086C246.69 74.3066 247.627 74.731 247.94 74.9595C249.159 75.7757 249.69 78.2569 249.908 79.6608C252.189 94.2218 241.909 110.154 223.224 139.08Z" fill="black"/>
</svg>
