<svg width="406" height="420" viewBox="0 0 406 420" fill="none" xmlns="http://www.w3.org/2000/svg">
<path d="M75.1258 32.8378C76.1162 32.6598 77.1065 32.5263 78.0969 32.3483C80.0776 32.0369 82.1055 31.7699 84.1805 31.4584C85.3595 31.3249 86.4914 31.147 87.6704 31.0135C89.7454 30.7465 91.8676 30.4795 94.037 30.2125C95.3103 30.0791 96.6308 29.9456 97.9512 29.7676H98.2814C90.3585 34.6176 80.3134 43.1608 73.6639 57.4884C51.6402 53.7508 37.1621 49.0787 30.7955 45.2966C31.4086 44.9406 31.9745 44.5846 32.6819 44.2287C32.8233 44.1842 32.9177 44.1397 33.0591 44.0507C37.3507 41.9594 43.8588 39.6901 52.5834 37.4653C52.8192 37.3764 53.1021 37.3318 53.3851 37.2429C55.2715 36.7979 57.2522 36.3085 59.3272 35.8635C59.8932 35.73 60.5062 35.5965 61.0722 35.463C62.9114 35.1071 64.845 34.7066 66.8257 34.3061C67.6274 34.1727 68.4763 33.9947 69.278 33.8612C71.1644 33.5052 73.0979 33.1493 75.1258 32.8378Z" fill="#DDDDDD"/>
<path d="M138.745 48.7674C143.696 51.2591 148.507 57.5775 152.138 63.7624C134.123 63.5844 117.947 62.6945 103.705 61.3596C106.864 57.0436 110.826 53.5729 115.495 51.0811C124.785 46.1421 134.076 46.4091 138.745 48.7674Z" fill="#DDDDDD"/>
<path d="M217.139 29.3049C216.592 29.2516 216.077 29.2026 215.521 29.1448C214.012 29.0113 212.503 28.8778 210.899 28.7443C208.683 28.5663 206.419 28.3883 204.155 28.2104C202.505 28.1214 200.901 27.9879 199.251 27.8989C196.846 27.7209 194.346 27.6319 191.847 27.4984C190.196 27.4094 188.545 27.3204 186.848 27.2315C184.065 27.1425 181.189 27.0535 178.312 26.9645C176.756 26.92 175.294 26.8755 173.737 26.831C169.351 26.742 164.824 26.6975 160.155 26.6975H159.967C158.174 26.6975 156.524 26.742 154.779 26.742C170.436 36.2196 179.868 55.4417 183.264 63.4509C186.499 63.3397 189.64 63.1929 192.743 63.0371C203.476 54.1647 210.47 42.2042 217.139 29.3049Z" fill="#DDDDDD"/>
<path d="M287.11 44.1843C287.015 44.1398 286.968 44.0953 286.921 44.0508C282.63 41.9595 276.122 39.6902 267.397 37.4655C267.067 37.3765 266.737 37.2875 266.454 37.243C264.615 36.7535 262.681 36.3086 260.653 35.8636C260.04 35.7301 259.38 35.5966 258.72 35.4631C256.927 35.0627 255.088 34.7067 253.155 34.3062C252.306 34.1728 251.41 33.9948 250.514 33.8168C248.674 33.5053 246.835 33.1939 244.902 32.8379C243.864 32.6599 242.732 32.5264 241.648 32.3484C239.808 32.037 237.875 31.77 235.894 31.503C234.668 31.325 233.395 31.1471 232.121 30.9691C230.141 30.7466 228.16 30.4796 226.085 30.2571C224.717 30.0792 223.302 29.9012 221.84 29.7677C220.331 29.6031 218.733 29.4562 217.139 29.3049C210.47 42.2042 203.476 54.1647 192.743 63.0371C245.689 60.3585 278.579 51.5617 289.138 45.2967C288.525 44.9407 287.864 44.5848 287.11 44.1843Z" fill="#B7B5B3"/>
<path d="M377.185 108.569C380.628 128.415 365.112 150.128 336.911 189.552C331.77 196.715 326.064 204.725 319.933 213.446V195.914L323.847 190.441C352.19 150.84 369.357 126.857 369.545 101.139C372.328 101.272 373.743 101.851 374.214 102.162C376.053 103.274 376.855 106.656 377.185 108.569Z" fill="#DDDDDD"/>
<path d="M338.656 69.6803C341.438 69.9027 350.87 70.9261 359.359 75.1532C356.529 75.5537 353.652 76.0876 350.587 76.7996C350.493 76.8441 350.398 76.844 350.304 76.8885C340.306 79.2913 329.931 83.2514 319.933 87.4785V73.0174C325.215 71.0596 332.289 69.1908 338.656 69.6803Z" fill="#D3D2D0"/>
<path d="M97.7154 223.235H62.4398V256.518H97.7154V223.235Z" fill="#E7DDDC"/>
<path d="M28.296 258.743V73.5515C39.4257 77.9121 52.8191 81.1603 66.92 83.563C66.8256 84.7199 66.6842 85.8323 66.5898 87.0782C64.7978 120.405 65.458 169.751 66.0239 196.538H60.0818C45.7451 196.538 34.1438 207.528 34.1438 221.01V258.743H28.296Z" fill="#DFDFDF"/>
<path d="M178.642 90.2595C170.526 90.4953 164.013 90.5487 159.967 90.5487C149.638 90.5487 123.323 90.2373 94.9801 87.3005C94.933 87.701 94.8858 88.057 94.8858 88.4129C93.0937 121.206 93.754 170.24 94.3199 196.537H100.073C114.363 196.537 126.011 207.528 126.011 221.01V258.742C126.011 272.269 114.363 283.215 100.073 283.215H60.0818C45.7451 283.215 34.1438 272.269 34.1438 258.742H28.296V293.404C28.296 348.357 75.6445 393.075 133.887 393.075H185.999C187.357 393.075 188.701 393.026 190.045 392.977C198.803 293.071 180.439 190.054 178.642 90.2595Z" fill="#E6E6E6"/>
<path d="M178.642 90.2597C180.439 190.055 198.803 293.075 190.045 392.977C246.415 390.961 291.637 347.075 291.637 293.405V73.5515C259.705 86.0281 208.353 89.392 178.642 90.2597Z" fill="#DDDDDD"/>
<path d="M406 110.75C406 109.459 406 97.846 399.822 80.7151C390.815 55.5751 363.462 44.8071 340.919 43.0718C333.468 42.4934 326.253 43.4723 319.933 44.9851C319.414 7.96473 220.048 1.33487 175.954 0.222475C175.482 0.222475 174.963 0.177987 174.492 0.177987H174.35C172.888 0.133491 171.426 0.133489 170.106 0.0889934H169.068C165.39 2.03884e-06 162.277 0 159.967 0C146.573 0 106.581 0.533944 69.9382 6.49636C33.2949 12.4143 0 23.7607 0 45.2966V293.404C0 363.085 60.0818 419.772 133.887 419.772H185.999C259.851 419.772 319.933 363.085 319.933 293.404V262.747C335.119 239.787 348.512 221.054 360.349 204.458C390.013 163.077 407.368 138.737 405.906 111.551C405.906 111.284 406 111.017 406 110.75ZM159.967 26.6974H160.155C164.824 26.6974 169.351 26.7419 173.737 26.8309C175.294 26.8754 176.756 26.9199 178.312 26.9644C181.189 27.0534 184.065 27.1424 186.848 27.2313C188.545 27.3203 190.196 27.4093 191.847 27.4983C194.346 27.6318 196.846 27.7208 199.251 27.8988C200.901 27.9878 202.505 28.1213 204.155 28.2103C206.419 28.3882 208.683 28.5662 210.899 28.7442C212.503 28.8777 214.012 29.0112 215.521 29.1447C216.077 29.2025 216.592 29.2514 217.139 29.3048C218.733 29.4561 220.331 29.603 221.84 29.7676C223.302 29.9011 224.717 30.0791 226.085 30.2571C228.16 30.4795 230.141 30.7465 232.121 30.969C233.395 31.147 234.668 31.325 235.894 31.5029C237.875 31.7699 239.808 32.0369 241.648 32.3484C242.732 32.5263 243.864 32.6598 244.902 32.8378C246.835 33.1938 248.674 33.5052 250.514 33.8167C251.41 33.9947 252.306 34.1727 253.155 34.3062C255.088 34.7066 256.927 35.0626 258.72 35.4631C259.38 35.5965 260.04 35.73 260.653 35.8635C262.681 36.3085 264.614 36.7534 266.454 37.2429C266.737 37.2874 267.067 37.3764 267.397 37.4654C276.122 39.6901 282.63 41.9594 286.921 44.0507C286.968 44.0952 287.015 44.1397 287.11 44.1842C287.864 44.5847 288.525 44.9406 289.138 45.2966C278.579 51.5616 245.684 60.3584 192.743 63.037C189.644 63.1927 186.503 63.3396 183.264 63.4508C179.868 55.4416 170.436 36.2195 154.779 26.7419C156.524 26.7419 158.174 26.6974 159.967 26.6974ZM115.495 51.081C124.785 46.142 134.076 46.409 138.745 48.7672C143.696 51.259 148.507 57.5774 152.138 63.7623C134.123 63.5843 117.947 62.6944 103.705 61.3595C106.864 57.0435 110.826 53.5728 115.495 51.081ZM32.6818 44.2287C32.8233 44.1842 32.9176 44.1397 33.0591 44.0507C37.3507 41.9594 43.8588 39.6901 52.5833 37.4654C52.8191 37.3764 53.1021 37.3319 53.3851 37.2429C55.2715 36.7979 57.2522 36.3085 59.3272 35.8635C59.8931 35.73 60.5062 35.5965 61.0721 35.4631C62.9114 35.1071 64.8449 34.7066 66.8257 34.3062C67.6274 34.1727 68.4762 33.9947 69.278 33.8612C71.1644 33.5052 73.0979 33.1493 75.1258 32.8378C76.1162 32.6598 77.1065 32.5263 78.0969 32.3484C80.0776 32.0369 82.1055 31.7699 84.1805 31.4584C85.3595 31.3249 86.4914 31.147 87.6704 31.0135C89.7454 30.7465 91.8676 30.4795 94.0369 30.2126C95.3103 30.0791 96.6307 29.9456 97.9512 29.7676H98.2813C90.3585 34.6176 80.3134 43.1608 73.6638 57.4884C51.6401 53.7508 37.162 49.0787 30.7955 45.2966C31.4085 44.9406 31.9744 44.5847 32.6818 44.2287ZM97.7154 223.235V256.518H62.4398V223.235H97.7154ZM291.637 293.404C291.637 347.075 246.42 390.961 190.045 392.977C188.701 393.026 187.357 393.075 185.999 393.075H133.887C75.6446 393.075 28.296 348.357 28.296 293.404V73.5513C39.4257 77.9119 52.8191 81.1601 66.92 83.5629C66.8257 84.7197 66.6842 85.8321 66.5899 87.078C64.7978 120.405 65.458 169.751 66.0239 196.537H60.0818C45.7452 196.537 34.1438 207.528 34.1438 221.01V258.742C34.1438 272.269 45.7452 283.215 60.0818 283.215H100.073C114.363 283.215 126.011 272.269 126.011 258.742V221.01C126.011 207.528 114.363 196.537 100.073 196.537H94.3199C93.754 170.24 93.0938 121.206 94.8858 88.4129C94.8858 88.0569 94.933 87.701 94.9801 87.3005C123.323 90.2372 149.639 90.5487 159.967 90.5487C164.013 90.5487 170.526 90.4953 178.642 90.2595C208.353 89.3918 259.705 86.0279 291.637 73.5513V293.404ZM319.933 73.0174C325.215 71.0596 332.289 69.1908 338.656 69.6802C341.438 69.9027 350.87 70.9261 359.359 75.1532C356.529 75.5536 353.652 76.0876 350.587 76.7995C350.493 76.844 350.398 76.844 350.304 76.8885C340.306 79.2913 329.931 83.2514 319.933 87.4785V73.0174ZM319.933 116.89C326.488 113.953 333.374 110.972 340.165 108.347C337.712 119.337 330.733 131.796 319.933 147.726V116.89ZM336.911 189.552C331.77 196.715 326.064 204.725 319.933 213.446V195.914L323.847 190.441C352.191 150.84 369.357 126.857 369.545 101.139C372.328 101.272 373.743 101.851 374.214 102.162C376.053 103.274 376.855 106.656 377.185 108.569C380.628 128.415 365.112 150.128 336.911 189.552Z" fill="black"/>
</svg>
