<svg width="269" height="200" viewBox="0 0 269 200" fill="none" xmlns="http://www.w3.org/2000/svg">
<path d="M49.7739 15.6464C50.4301 15.5616 51.0863 15.498 51.7425 15.4132C53.0548 15.2648 54.3984 15.1376 55.7732 14.9892C56.5544 14.9256 57.3043 14.8408 58.0855 14.7772C59.4603 14.65 60.8664 14.5228 62.3037 14.3956C63.1474 14.332 64.0223 14.2684 64.8972 14.1836H65.1159C59.8665 16.4944 53.211 20.5648 48.8053 27.3911C34.2132 25.6104 24.6206 23.3844 20.4023 21.5824C20.8085 21.4128 21.1835 21.2432 21.6522 21.0736C21.7459 21.0524 21.8084 21.0312 21.9022 20.9888C24.7456 19.9924 29.0576 18.9112 34.8382 17.8512C34.9944 17.8088 35.1819 17.7876 35.3694 17.7452C36.6192 17.5332 37.9316 17.3 39.3064 17.088C39.6814 17.0244 40.0876 16.9608 40.4625 16.8972C41.6811 16.7276 42.9622 16.5368 44.2746 16.346C44.8058 16.2824 45.3682 16.1976 45.8994 16.134C47.1492 15.9644 48.4303 15.7948 49.7739 15.6464Z" fill="#FBF9F4"/>
<path d="M91.927 23.2319C95.2079 24.4191 98.395 27.4295 100.801 30.3763C88.8648 30.2915 78.1473 29.8675 68.7109 29.2315C70.8044 27.1751 73.4291 25.5215 76.5225 24.3343C82.6781 21.9811 88.8336 22.1083 91.927 23.2319Z" fill="#F6F3EE"/>
<path d="M143.868 13.9611C143.505 13.9356 143.165 13.9123 142.796 13.8847C141.796 13.8211 140.796 13.7575 139.734 13.6939C138.265 13.6091 136.766 13.5243 135.266 13.4395C134.172 13.3971 133.11 13.3335 132.016 13.2911C130.423 13.2063 128.766 13.1639 127.11 13.1003C126.017 13.0579 124.923 13.0155 123.798 12.9731C121.955 12.9307 120.049 12.8884 118.143 12.846C117.112 12.8248 116.143 12.8035 115.112 12.7823C112.206 12.7399 109.206 12.7188 106.113 12.7188H105.988C104.801 12.7188 103.707 12.74 102.551 12.74C112.925 17.2555 119.174 26.4139 121.424 30.2299C123.567 30.1769 125.648 30.1069 127.704 30.0327C134.816 25.8055 139.45 20.1069 143.868 13.9611Z" fill="#F7F5EF"/>
<path d="M190.227 21.0502C190.165 21.029 190.133 21.0078 190.102 20.9866C187.259 19.9902 182.947 18.909 177.166 17.849C176.947 17.8066 176.729 17.7642 176.541 17.743C175.323 17.5098 174.041 17.2978 172.698 17.0858C172.292 17.0222 171.854 16.9586 171.417 16.895C170.229 16.7042 169.011 16.5346 167.73 16.3438C167.167 16.2802 166.574 16.1954 165.98 16.1106C164.761 15.9622 163.543 15.8138 162.262 15.6442C161.574 15.5594 160.824 15.4958 160.106 15.411C158.887 15.2626 157.606 15.1354 156.294 15.0082C155.481 14.9234 154.638 14.8386 153.794 14.7538C152.482 14.6478 151.169 14.5206 149.794 14.4146C148.888 14.3298 147.951 14.245 146.982 14.1814C145.982 14.103 144.923 14.033 143.867 13.9609C139.449 20.1068 134.815 25.8053 127.703 30.0326C162.783 28.7564 184.575 24.5651 191.571 21.5802C191.165 21.4106 190.727 21.241 190.227 21.0502Z" fill="#FBF8F3"/>
<path d="M249.91 51.7279C252.191 61.183 241.911 71.5286 223.225 90.3117C219.819 93.7249 216.039 97.5409 211.977 101.696V93.3433L214.57 90.7357C233.349 71.8678 244.723 60.4411 244.848 48.1875C246.691 48.2511 247.629 48.5267 247.941 48.6751C249.16 49.2051 249.691 50.8163 249.91 51.7279Z" fill="#F9F7F2"/>
<path d="M224.381 33.1978C226.225 33.3038 232.474 33.7914 238.099 35.8053C236.224 35.9961 234.318 36.2505 232.287 36.5897C232.224 36.6109 232.162 36.6109 232.099 36.6321C225.475 37.7769 218.601 39.6637 211.977 41.6777V34.7878C215.476 33.855 220.163 32.9646 224.381 33.1978Z" fill="#FAF7F2"/>
<path d="M64.7434 106.359H41.3711V122.217H64.7434V106.359Z" fill="#D6E6EA"/>
<path d="M18.7461 123.281V35.0469C26.1202 37.1245 34.9942 38.6721 44.3369 39.8169C44.2744 40.3681 44.1806 40.8981 44.1181 41.4917C42.9308 57.3704 43.3682 80.8811 43.7432 93.6434H39.8061C30.3073 93.6434 22.6206 98.8798 22.6206 105.303V123.281H18.7461Z" fill="#F9F6F1"/>
<path d="M118.36 43.0035C112.982 43.1159 108.667 43.1413 105.986 43.1413C99.143 43.1413 81.7075 42.9929 62.9285 41.5938C62.8972 41.7845 62.866 41.9541 62.866 42.1237C61.6786 57.7481 62.1161 81.1104 62.491 93.6395H66.3031C75.7707 93.6395 83.4886 98.8759 83.4886 105.299V123.277C83.4886 129.722 75.7707 134.937 66.3031 134.937H39.8061C30.3073 134.937 22.6206 129.722 22.6206 123.277H18.7461V139.792C18.7461 165.974 50.1174 187.28 88.7067 187.28H123.234C124.134 187.28 125.024 187.256 125.915 187.233C131.717 139.633 119.55 90.5507 118.36 43.0035Z" fill="#FAF7F2"/>
<path d="M118.359 43.0075C119.55 90.5546 131.717 139.639 125.915 187.237C163.264 186.276 193.226 165.367 193.226 139.796V35.0469C172.069 40.9913 138.045 42.5941 118.359 43.0075Z" fill="#FBF8F3"/>
<path d="M269 52.7666C269 52.1518 269 46.6186 264.907 38.4566C258.939 26.4787 240.816 21.3483 225.88 20.5215C220.943 20.2459 216.162 20.7123 211.975 21.4331C211.632 3.79479 145.796 0.635996 116.58 0.105998C116.268 0.105998 115.924 0.0848016 115.612 0.0848016H115.518C114.549 0.0636017 113.581 0.0636007 112.706 0.0424008H112.018C109.581 9.72446e-07 107.519 0 105.988 0C97.1137 0 70.6168 0.254397 46.3384 3.09519C22.0599 5.91477 0 11.3208 0 21.5815V139.792C0 172.991 39.8079 200 88.7084 200H123.236C172.168 200 211.975 172.991 211.975 139.792V125.185C222.037 114.246 230.911 105.321 238.754 97.4136C258.408 77.6977 269.906 66.1013 268.938 53.1482C268.938 53.021 269 52.8938 269 52.7666ZM105.988 12.7199H106.113C109.206 12.7199 112.206 12.7411 115.112 12.7835C116.143 12.8047 117.111 12.826 118.143 12.8472C120.049 12.8896 121.955 12.9319 123.798 12.9743C124.923 13.0167 126.017 13.0591 127.11 13.1015C128.766 13.1651 130.422 13.2075 132.016 13.2923C133.11 13.3347 134.172 13.3983 135.266 13.4407C136.765 13.5255 138.265 13.6103 139.734 13.6951C140.796 13.7587 141.796 13.8223 142.796 13.8859C143.165 13.9135 143.505 13.9368 143.868 13.9623C144.924 14.0343 145.983 14.1043 146.983 14.1827C147.952 14.2463 148.889 14.3311 149.795 14.4159C151.17 14.5219 152.482 14.6491 153.795 14.7551C154.638 14.8399 155.482 14.9247 156.294 15.0095C157.607 15.1367 158.888 15.2639 160.106 15.4123C160.825 15.4971 161.575 15.5607 162.262 15.6455C163.544 15.8151 164.762 15.9635 165.981 16.1119C166.574 16.1967 167.168 16.2815 167.731 16.3451C169.012 16.5359 170.23 16.7055 171.418 16.8963C171.855 16.9599 172.292 17.0235 172.699 17.0871C174.042 17.2991 175.323 17.5111 176.542 17.7443C176.729 17.7655 176.948 17.8079 177.167 17.8503C182.948 18.9103 187.26 19.9915 190.103 20.9879C190.134 21.0091 190.165 21.0303 190.228 21.0515C190.728 21.2423 191.165 21.4119 191.572 21.5815C184.575 24.5665 162.781 28.7577 127.704 30.0339C125.651 30.1081 123.57 30.1781 121.423 30.2311C119.174 26.4151 112.924 17.2567 102.551 12.7412C103.707 12.7412 104.8 12.7199 105.988 12.7199ZM76.5224 24.3375C82.6779 21.9843 88.8334 22.1115 91.9268 23.2351C95.2077 24.4223 98.3948 27.4327 100.801 30.3795C88.8647 30.2947 78.1472 29.8707 68.7108 29.2347C70.8043 27.1783 73.429 25.5247 76.5224 24.3375ZM21.6537 21.0727C21.7475 21.0515 21.81 21.0303 21.9037 20.9879C24.7471 19.9915 29.0591 18.9103 34.8397 17.8503C34.9959 17.8079 35.1834 17.7867 35.3709 17.7443C36.6207 17.5323 37.9331 17.2991 39.3079 17.0871C39.6829 17.0235 40.0891 16.9599 40.4641 16.8963C41.6827 16.7267 42.9638 16.5359 44.2761 16.3451C44.8073 16.2815 45.3697 16.1967 45.9009 16.1331C47.1508 15.9635 48.4319 15.7939 49.7755 15.6455C50.4316 15.5607 51.0878 15.4971 51.744 15.4123C53.0563 15.2639 54.3999 15.1367 55.7748 14.9883C56.5559 14.9247 57.3058 14.8399 58.087 14.7763C59.4618 14.6491 60.8679 14.5219 62.3053 14.3947C63.1489 14.3311 64.0238 14.2675 64.8987 14.1827H65.1174C59.868 16.4935 53.2126 20.5639 48.8068 27.3903C34.2148 25.6095 24.6221 23.3835 20.4039 21.5815C20.8101 21.4119 21.185 21.2423 21.6537 21.0727ZM64.7425 106.36V122.218H41.3702V106.36H64.7425ZM193.228 139.792C193.228 165.364 163.269 186.273 125.917 187.233C125.026 187.257 124.136 187.28 123.236 187.28H88.7084C50.1192 187.28 18.7478 165.974 18.7478 139.792V35.0435C26.122 37.121 34.9959 38.6686 44.3386 39.8134C44.2761 40.3646 44.1824 40.8946 44.1199 41.4882C42.9325 57.367 43.37 80.8777 43.7449 93.64H39.8079C30.309 93.64 22.6224 98.8764 22.6224 105.3V123.277C22.6224 129.722 30.309 134.937 39.8079 134.937H66.3048C75.7724 134.937 83.4903 129.722 83.4903 123.277V105.3C83.4903 98.8764 75.7724 93.64 66.3048 93.64H62.4927C62.1178 81.1109 61.6803 57.7486 62.8677 42.1242C62.8677 41.9546 62.8989 41.785 62.9302 41.5942C81.7093 42.9934 99.1447 43.1418 105.988 43.1418C108.669 43.1418 112.984 43.1164 118.361 43.004C138.046 42.5906 172.071 40.9879 193.228 35.0435V139.792ZM211.975 34.7891C215.475 33.8563 220.162 32.9659 224.38 33.1991C226.224 33.3051 232.473 33.7927 238.097 35.8067C236.223 35.9975 234.317 36.2519 232.286 36.5911C232.223 36.6123 232.161 36.6122 232.098 36.6334C225.474 37.7782 218.6 39.665 211.975 41.679V34.7891ZM211.975 55.6922C216.319 54.293 220.881 52.8726 225.38 51.6218C223.755 56.8582 219.131 62.7941 211.975 70.3837V55.6922ZM223.224 90.3116C219.818 93.7248 216.037 97.5408 211.975 101.696V93.3432L214.569 90.7356C233.348 71.8677 244.722 60.441 244.847 48.1874C246.69 48.251 247.627 48.5266 247.94 48.675C249.159 49.205 249.69 50.8162 249.908 51.7278C252.189 61.183 241.909 71.5285 223.224 90.3116Z" fill="black"/>
</svg>
