<svg width="229" height="377" viewBox="0 0 229 377" fill="none" xmlns="http://www.w3.org/2000/svg">
<path d="M186.5 0C205.051 0 218.517 3.97358 226.899 11.918L228.408 13.5166L197.786 91.6816L197.814 91.6924C178.201 124.476 161.367 155.295 147.311 184.148L146.99 184L111.504 260.513C108.081 267.382 105.298 275.668 103.593 284.767C101.035 298.415 101.398 311.237 104.049 320.796L104 320.812L104.466 322.203C104.66 322.825 104.861 323.433 105.075 324.023L108.434 334.044L108.473 334.03L110.683 341.117L110.768 341.09C112.283 345.626 114.193 350.096 116.5 354.5C107.167 361.167 96.1667 366.5 83.5 370.5C70.8333 374.833 58.5 377 46.5 377C31.1667 377 19.5 372.833 11.5 364.5C3.83333 356.167 0 344 0 328C7.05508e-06 307.333 7.16667 279 21.5 243C36.1667 206.667 63 150.333 102 74L85.5 31.5C104.167 20.1667 121.167 12.1667 136.5 7.5C151.833 2.5 168.5 0 186.5 0Z" fill="black"/>
</svg>
