<svg width="218" height="377" viewBox="0 0 218 377" fill="none" xmlns="http://www.w3.org/2000/svg">
<path d="M133.525 0C151.859 0 165.192 5.83335 173.525 17.5C181.859 29.1667 186.025 47.8333 186.025 73.5C186.025 97.5 185.859 115.167 185.525 126.5C185.192 168.833 185.359 202.833 186.025 228.5C187.025 253.833 189.859 277.5 194.525 299.5C199.192 321.5 206.859 339.833 217.525 354.5C198.192 369.5 177.359 377 155.025 377C137.359 377 123.025 371.5 112.025 360.5C101.025 349.5 92.8587 332.333 87.5254 309C85.8035 300.85 84.398 291.85 83.3086 282H0L23.2422 222.5H80.4961C80.4987 220.52 80.5077 218.52 80.5254 216.5C80.5254 188.167 80.6921 160.833 81.0254 134.5C81.663 108.995 82.4539 86.9966 83.3965 68.5049L108.215 4.96777C117.314 1.65633 125.751 0 133.525 0Z" fill="black"/>
</svg>
