<svg width="172" height="153" viewBox="0 0 172 153" fill="none" xmlns="http://www.w3.org/2000/svg">
<path d="M93 0C117.333 0 136.5 6 150.5 18C164.5 29.6667 171.5 45.8333 171.5 66.5C171.5 83.5 167.5 98.5 159.5 111.5C151.833 124.5 141 134.667 127 142C113 149 96.8333 152.5 78.5 152.5C54.1667 152.5 35 146.667 21 135C7 123 0 106.667 0 86C0 60.3333 8.5 39.6667 25.5 24C42.8333 8.00001 65.3333 0 93 0ZM107 43.5C103.333 38.5 97.6667 36.1667 90 36.5C87.3333 36.5 83.6666 36.8333 79 37.5L74 38.5C69.3333 44.1667 65.6667 51.1667 63 59.5C60.6667 67.5 59.5 75.6667 59.5 84C59.5 93.3333 61.5 100.833 65.5 106.5C69.8333 112.167 75.3333 115.167 82 115.5C91.3333 115.167 98.8333 110.5 104.5 101.5C110.167 92.5 113 80.6667 113 66C113 56 111 48.5 107 43.5Z" fill="black"/>
</svg>
