<svg width="177" height="225" viewBox="0 0 177 225" fill="none" xmlns="http://www.w3.org/2000/svg">
<path d="M88.1621 0C106.366 0 122.064 4.46591 135.255 13.3975C148.71 22.3292 158.868 34.1427 165.728 48.8369C172.851 63.5309 176.412 79.5215 176.412 96.8086C176.412 118.13 171.531 138.587 161.77 158.179C152.008 177.482 137.102 193.329 117.052 205.718C97.2648 218.107 72.9923 224.302 44.2354 224.302C32.8911 224.302 22.9979 223.293 14.5557 221.276C11.9503 220.542 9.3057 219.659 6.62012 218.632L0 215.37L7.2666 168.264L12.6934 169.519L12.707 169.458C16.1836 170.004 19.7018 170.279 23.2617 170.279C35.3975 170.279 46.346 167.398 56.1074 161.636C66.1328 155.873 73.9157 147.806 79.4561 137.434C85.2602 127.061 88.1621 115.537 88.1621 102.859C88.1621 89.6059 84.6007 78.3692 77.4775 69.1494C70.6182 59.9297 60.8568 55.3194 48.1934 55.3193C42.6998 55.3193 37.1431 56.3622 31.5225 58.4443L23.8779 60.6055L31.3213 12.375C37.4074 9.33111 44.0862 6.79031 51.3584 4.75391C61.9113 1.58462 74.1795 2.88222e-05 88.1621 0Z" fill="black"/>
</svg>
